<?xml version="1.0" encoding="utf-8"?>
<!-- Generator: Adobe Illustrator 24.1.0, SVG Export Plug-In . SVG Version: 6.00 Build 0)  -->
<svg version="1.1" xmlns="http://www.w3.org/2000/svg" xmlns:xlink="http://www.w3.org/1999/xlink" x="0px" y="0px"
	 viewBox="0 0 1451.71 335.46" style="enable-background:new 0 0 1451.71 335.46;" xml:space="preserve">
<style type="text/css">
	.st0{fill:#010202;}
	.st1{fill:#C8D400;}
	.st2{fill:#FFFFFF;}
	.st3{fill:none;stroke:#C8D400;stroke-width:2.777;stroke-miterlimit:10;}
	.st4{clip-path:url(#SVGID_2_);}
	.st5{fill:none;stroke:#FFFFFF;stroke-width:2.7771;stroke-linecap:round;stroke-linejoin:round;stroke-miterlimit:10;}
	.st6{fill:none;stroke:#FFFFFF;stroke-width:1.4173;stroke-linecap:round;stroke-linejoin:round;stroke-miterlimit:10;}
	.st7{fill:url(#SVGID_3_);}
	.st8{fill:url(#SVGID_4_);}
</style>
<g id="Layer_3">
	<rect class="st0" width="1451.71" height="335.46"/>
</g>
<g id="Layer_1">
	<polygon class="st1" points="1110.22,185.12 1107.53,172.79 1060.48,149.53 1058.35,148.42 1058.41,150.79 1059.29,207.52 
		1061.16,153.11 1103.84,175.88 1105.18,186.16 1097.86,183.62 1111.21,204.01 1115.96,180.1 	"/>
	<g>
		<path class="st2" d="M1105.52,155.95c0-0.81-0.85-0.93-3-0.99c-2.02-0.06-6.43-0.2-5.85-4.07l0.04-0.26
			c0.34-2.28,2.06-4.31,7.1-4.31h0.71c1.81,0,3.53,0.24,5.1,0.65l-0.48,3.27c-1.84-0.46-3.69-0.73-5.63-0.73
			c-2.88,0-3.25,0.65-3.25,1.25c0,0.83,0.89,0.95,2.98,1.01c1.88,0.04,6.47,0.18,5.87,4.09l-0.04,0.26
			c-0.34,2.26-2.06,4.29-7.12,4.29h-0.71c-2.08,0-4.05-0.24-5.87-0.63l0.48-3.33c2.06,0.48,4.42,0.79,6.45,0.79
			C1105.12,157.24,1105.52,156.59,1105.52,155.95z"/>
		<path class="st2" d="M1115.58,150.1h3.06l-0.4,2.78l-3.08,0l-0.44,3.17c-0.12,0.87-0.1,1.39,1.69,1.39c0.62,0,1.33-0.06,1.86-0.22
			l-0.4,2.9c-0.56,0.14-1.29,0.2-2.02,0.2c-3.57,0-4.7-1.39-4.34-3.87l1.45-10.32h0.79l2.18,1.39L1115.58,150.1z"/>
		<path class="st2" d="M1131.23,161.01c-0.4,2.84-2.2,4.36-6.63,4.36c-1.33,0-3.04-0.18-4.17-0.5l0.42-2.98
			c1.13,0.4,2.84,0.6,4.07,0.6c2.82,0,3.02-0.67,3.19-1.88l0.08-0.56c-0.79,0.24-1.65,0.36-2.56,0.36c-4.44,0-5.36-2.22-4.98-4.96
			l0.75-5.36h3.17l-0.69,4.96c-0.18,1.29-0.34,2.48,2.34,2.48c0.85,0,1.61-0.1,2.36-0.32l0.99-7.12l3.17,0L1131.23,161.01z"/>
		<path class="st2" d="M1136.92,145.14l2.2,1.39l-1.9,13.49h-3.17l2.08-14.88H1136.92z"/>
		<path class="st2" d="M1145.61,160.42c-4.44,0-5.38-2.22-4.98-4.96l0.12-0.79c0.42-2.74,1.92-4.96,6.37-4.96h0.56
			c4.52,0,5.34,1.45,5.02,3.17l-0.04,0.2c-0.28,1.57-0.89,2.98-5.85,2.98c-1.19,0-2.16-0.1-3.02-0.36c-0.1,1.13,0.2,1.85,2.84,1.85
			c1.25,0,3.27-0.2,4.7-0.6l-0.42,2.98c-1.41,0.32-3.41,0.5-4.92,0.5H1145.61z M1144.18,153.57c0.73,0.2,1.59,0.3,2.74,0.3
			c2.32,0,2.58-0.4,2.58-0.87c0-0.36-0.28-0.81-2.14-0.81C1145.26,152.18,1144.5,152.68,1144.18,153.57z"/>
		<path class="st2" d="M1165.93,160.02h-0.79l-1.71-1.07c-1.23,1.05-2.36,1.47-4.11,1.47c-4.03,0-5.1-2.22-4.7-4.96l0.12-0.79
			c0.42-2.74,1.92-4.96,6.37-4.96c1.15,0,2.14,0.16,3.04,0.46l0.69-5.02h0.79l2.2,1.39L1165.93,160.02z M1163.23,156.63l0.52-3.61
			c-0.83-0.28-1.75-0.44-2.74-0.44c-2.8,0-3.23,1.11-3.23,3.21c0,0.91,0.38,1.75,2.3,1.75
			C1161.33,157.54,1162.32,157.24,1163.23,156.63z"/>
	</g>
	<g>
		<path class="st3" d="M1145.22,205.86c0,7.52-6.1,13.62-13.63,13.62c-7.52,0-13.62-6.1-13.62-13.62c0-7.52,6.1-13.62,13.62-13.62
			C1139.12,192.24,1145.22,198.34,1145.22,205.86z"/>
		<path class="st1" d="M1123.73,205.86c0-4.34,3.53-7.87,7.87-7.87c4.35,0,7.87,3.53,7.87,7.87c0,4.35-3.53,7.88-7.87,7.88
			C1127.25,213.74,1123.73,210.21,1123.73,205.86"/>
	</g>
	<g>
		<polygon class="st2" points="1113.24,239.33 1117.49,237.2 1116.81,232.58 1117.9,233.14 1118.38,236.77 1121.65,235.06 
			1122.74,235.63 1118.57,237.76 1119.32,242.46 1118.25,241.91 1117.72,238.15 1114.32,239.89 		"/>
		<path class="st2" d="M1126.98,240.92c0.13-0.25,0.23-0.51,0.28-0.77c0.06-0.26,0.06-0.51,0.01-0.74
			c-0.06-0.24-0.17-0.46-0.34-0.67c-0.17-0.22-0.41-0.4-0.73-0.56c-0.54-0.28-1.05-0.34-1.52-0.18c-0.47,0.15-0.86,0.54-1.18,1.15
			l-0.94,1.82c-0.31,0.61-0.4,1.15-0.27,1.62c0.14,0.48,0.48,0.85,1.04,1.14c0.55,0.28,1.06,0.35,1.52,0.2
			c0.46-0.15,0.86-0.54,1.18-1.18L1126.98,240.92z M1126.59,237.39c0.88,0.45,1.44,1.01,1.69,1.67c0.25,0.66,0.14,1.45-0.34,2.37
			l-0.94,1.83c-0.47,0.91-1.04,1.47-1.72,1.66c-0.68,0.2-1.47,0.07-2.36-0.39c-0.87-0.45-1.43-1.01-1.68-1.67
			c-0.25-0.67-0.14-1.47,0.34-2.39l0.94-1.83c0.47-0.91,1.05-1.46,1.74-1.64C1124.95,236.82,1125.73,236.95,1126.59,237.39"/>
		<path class="st2" d="M1132.5,240.43c0.3,0.16,0.6,0.34,0.88,0.54c0.29,0.21,0.52,0.44,0.7,0.7c0.18,0.26,0.28,0.55,0.31,0.87
			c0.03,0.32-0.05,0.66-0.26,1.04c-0.22,0.4-0.46,0.68-0.74,0.84c-0.28,0.16-0.66,0.22-1.14,0.18c0.41,0.4,0.63,0.79,0.68,1.19
			c0.04,0.4-0.03,0.78-0.22,1.14c-0.22,0.43-0.47,0.75-0.73,0.96c-0.26,0.21-0.56,0.33-0.89,0.36c-0.33,0.03-0.69-0.02-1.07-0.16
			c-0.39-0.13-0.82-0.32-1.29-0.58c-0.11-0.05-0.24-0.12-0.39-0.22c-0.15-0.09-0.31-0.2-0.48-0.3c-0.17-0.11-0.34-0.22-0.5-0.33
			c-0.17-0.11-0.32-0.22-0.45-0.32l0.19-0.36c0.15-0.3,0.39-0.34,0.7-0.12c0.22,0.15,0.42,0.3,0.61,0.42
			c0.18,0.13,0.43,0.27,0.75,0.43c0.63,0.33,1.16,0.49,1.58,0.48c0.42-0.01,0.76-0.26,1.01-0.74c0.25-0.48,0.26-0.89,0.03-1.23
			c-0.23-0.34-0.7-0.69-1.39-1.05l-1.17-0.6c-0.06-0.03-0.08-0.06-0.08-0.09c0.01-0.03,0.02-0.08,0.06-0.14l0.31-0.6l1.28,0.66
			c0.62,0.32,1.12,0.47,1.49,0.44c0.36-0.03,0.67-0.29,0.92-0.78c0.18-0.35,0.19-0.68,0.02-0.97c-0.17-0.3-0.54-0.59-1.11-0.89
			c-0.21-0.11-0.41-0.2-0.57-0.28c-0.17-0.08-0.33-0.14-0.48-0.19c-0.15-0.05-0.3-0.1-0.45-0.14c-0.15-0.04-0.31-0.08-0.47-0.12
			l0.37-0.73c0.2,0.04,0.38,0.08,0.55,0.12c0.17,0.05,0.33,0.1,0.49,0.14c0.16,0.05,0.31,0.11,0.47,0.18
			C1132.16,240.26,1132.32,240.34,1132.5,240.43"/>
		<path class="st2" d="M1138.26,244.62c-0.52-0.27-0.95-0.38-1.28-0.34c-0.34,0.04-0.62,0.27-0.83,0.69
			c-0.25,0.49-0.29,0.88-0.11,1.17c0.18,0.29,0.52,0.57,1.02,0.83l2.14,1.1l1.2-2.34L1138.26,244.62z M1136.8,247.84l-3.12,2
			l-1.04-0.53l3.25-2.09c-0.3-0.2-0.54-0.41-0.69-0.65c-0.16-0.23-0.26-0.46-0.3-0.71c-0.04-0.24-0.04-0.48,0.02-0.72
			c0.05-0.24,0.14-0.47,0.26-0.69c0.31-0.62,0.76-0.98,1.35-1.11c0.58-0.12,1.3,0.04,2.15,0.47l3.11,1.6l-3.59,6.96l-0.42-0.22
			c-0.19-0.1-0.31-0.21-0.35-0.35c-0.04-0.14-0.01-0.31,0.1-0.53l1.25-2.43L1136.8,247.84z"/>
		<path class="st2" d="M1146.44,245.03c-0.15,0.35-0.16,0.66-0.03,0.91c0.13,0.26,0.33,0.47,0.61,0.61
			c0.26,0.14,0.54,0.18,0.82,0.13c0.29-0.05,0.53-0.23,0.73-0.55l0.71,0.36c-0.26,0.45-0.62,0.74-1.08,0.9
			c-0.45,0.14-0.97,0.07-1.55-0.23c-0.55-0.28-0.89-0.65-1.03-1.1c-0.14-0.45-0.11-0.92,0.1-1.39L1146.44,245.03z M1143.5,246.3
			l0.98,0.5l-3.06,5.94l6.51-4.16l1.27,0.65l-3.5,6.79l-0.42-0.22c-0.19-0.1-0.3-0.21-0.35-0.34c-0.05-0.13-0.02-0.3,0.09-0.52
			l2.54-4.94l-5.36,3.46c-0.17,0.12-0.37,0.19-0.6,0.23c-0.23,0.03-0.44-0.01-0.63-0.11l-0.41-0.21c-0.37-0.19-0.47-0.45-0.3-0.78
			L1143.5,246.3z"/>
		<path class="st2" d="M1152.55,258.56l-0.13,0.26c-0.07,0.14-0.17,0.24-0.3,0.3c-0.13,0.07-0.34,0.02-0.64-0.13l-1.63-0.84
			c-0.36-0.18-0.67-0.41-0.92-0.67c-0.25-0.26-0.44-0.54-0.55-0.85c-0.12-0.3-0.17-0.63-0.14-0.97c0.02-0.33,0.12-0.68,0.3-1.02
			l1.18-2.28c0.18-0.35,0.4-0.63,0.66-0.85c0.26-0.22,0.55-0.37,0.87-0.46c0.32-0.09,0.66-0.1,1.02-0.05
			c0.36,0.05,0.72,0.17,1.08,0.35l2.26,1.16l-0.12,0.24c-0.08,0.15-0.18,0.26-0.32,0.34c-0.13,0.08-0.34,0.04-0.62-0.1l-1.61-0.83
			c-0.48-0.25-0.92-0.31-1.3-0.2c-0.38,0.11-0.7,0.42-0.95,0.91l-1.17,2.27c-0.22,0.44-0.28,0.85-0.16,1.26
			c0.11,0.4,0.42,0.73,0.9,0.98L1152.55,258.56z"/>
		<path class="st2" d="M1158.29,254.92l-2.33-1.2l0.41-0.8l5.65,2.9l-0.12,0.24c-0.1,0.2-0.21,0.33-0.32,0.38
			c-0.11,0.05-0.3,0.01-0.56-0.12l-1.75-0.9l-3.08,5.99l-0.42-0.22c-0.19-0.1-0.3-0.21-0.35-0.35c-0.05-0.13-0.02-0.31,0.09-0.52
			L1158.29,254.92z"/>
		<path class="st2" d="M1163.67,257.69l-1.07,2.09l1.85,0.95c0.28,0.15,0.52,0.24,0.73,0.3c0.21,0.05,0.39,0.05,0.55,0.01
			c0.16-0.04,0.29-0.11,0.4-0.23c0.11-0.11,0.21-0.26,0.31-0.45c0.2-0.38,0.21-0.71,0.04-0.97c-0.17-0.26-0.49-0.51-0.95-0.75
			L1163.67,257.69z M1162.19,260.55l-1.21,2.35l1.83,0.94c0.58,0.29,1.05,0.43,1.41,0.41c0.36-0.02,0.65-0.24,0.87-0.66l0.04-0.08
			c0.22-0.43,0.25-0.8,0.08-1.1c-0.17-0.3-0.56-0.61-1.17-0.92L1162.19,260.55z M1165.92,257.83c0.82,0.42,1.35,0.88,1.59,1.37
			c0.24,0.48,0.2,1.03-0.1,1.62c-0.22,0.42-0.48,0.71-0.78,0.87s-0.63,0.21-0.96,0.15c0.37,0.3,0.6,0.62,0.67,0.98
			c0.07,0.35,0.02,0.7-0.16,1.03l-0.15,0.3c-0.21,0.4-0.44,0.67-0.72,0.83c-0.28,0.16-0.58,0.24-0.9,0.24
			c-0.32,0-0.65-0.06-0.99-0.18c-0.34-0.11-0.67-0.26-0.99-0.42l-2.79-1.43l3.5-6.79L1165.92,257.83z"/>
		<path class="st2" d="M1169.42,263.44l2.94,1.51c0.16,0.08,0.27,0.11,0.34,0.08c0.07-0.02,0.14-0.11,0.22-0.26l0.34-0.67
			c0.22-0.42,0.24-0.83,0.08-1.22c-0.16-0.39-0.51-0.73-1.05-1.01c-0.51-0.26-0.97-0.33-1.38-0.24c-0.42,0.1-0.73,0.36-0.95,0.78
			L1169.42,263.44z M1171.9,268.51l-0.15,0.29c-0.08,0.15-0.18,0.25-0.29,0.3c-0.12,0.05-0.33,0-0.62-0.16l-2.02-1.04
			c-0.34-0.18-0.64-0.39-0.86-0.64c-0.24-0.24-0.4-0.51-0.51-0.8c-0.11-0.29-0.15-0.6-0.12-0.92c0.03-0.32,0.12-0.65,0.29-0.97
			l1.24-2.42c0.22-0.43,0.48-0.77,0.78-1c0.3-0.24,0.62-0.39,0.95-0.45c0.34-0.07,0.68-0.07,1.04,0c0.36,0.07,0.72,0.2,1.07,0.38
			c0.38,0.19,0.7,0.42,0.98,0.69c0.27,0.26,0.49,0.54,0.63,0.85c0.15,0.3,0.21,0.62,0.21,0.96c-0.01,0.33-0.1,0.67-0.28,1.02
			l-0.52,1.01c-0.14,0.26-0.3,0.43-0.5,0.5c-0.2,0.07-0.45,0.02-0.76-0.14l-3.43-1.76l-0.44,0.87c-0.22,0.44-0.27,0.84-0.13,1.21
			c0.14,0.37,0.39,0.65,0.76,0.84L1171.9,268.51z"/>
		<path class="st2" d="M1174.32,270.74l-0.42-0.22c-0.19-0.1-0.3-0.21-0.34-0.34c-0.04-0.13-0.01-0.3,0.1-0.52l3.2-6.21l0.96,0.49
			l-1.42,2.75l3.55,1.83l1.42-2.75l0.97,0.5l-3.49,6.79l-0.42-0.22c-0.2-0.1-0.31-0.22-0.36-0.35c-0.04-0.13-0.01-0.3,0.1-0.52
			l1.54-2.99c-0.14,0.05-0.29,0.08-0.45,0.07c-0.16-0.01-0.34-0.05-0.53-0.15l-2.74-1.41L1174.32,270.74z"/>
		<path class="st2" d="M1181.68,274.52l-0.42-0.22c-0.19-0.1-0.3-0.21-0.34-0.34c-0.04-0.13-0.01-0.3,0.1-0.51l3.19-6.21l0.96,0.49
			l-1.42,2.75l3.55,1.83l1.42-2.75l0.97,0.5l-3.5,6.79l-0.42-0.22c-0.19-0.1-0.31-0.22-0.36-0.35c-0.04-0.13-0.01-0.3,0.1-0.52
			l1.54-3c-0.14,0.06-0.3,0.08-0.46,0.07c-0.16-0.01-0.34-0.05-0.53-0.15l-2.74-1.41L1181.68,274.52z"/>
		<path class="st2" d="M1191.86,275.22c-0.43-0.22-0.78-0.3-1.06-0.24c-0.28,0.06-0.52,0.3-0.74,0.73l-0.34,0.66
			c-0.11,0.21-0.16,0.4-0.15,0.57c0.01,0.18,0.05,0.34,0.13,0.48c0.08,0.14,0.18,0.26,0.32,0.37c0.13,0.11,0.26,0.19,0.39,0.26
			l1.89,0.97l1.38-2.68c-0.35-0.24-0.67-0.45-0.97-0.63C1192.42,275.52,1192.14,275.36,1191.86,275.22 M1192.88,280.28l-2.87-1.48
			c-0.67-0.34-1.12-0.76-1.36-1.26c-0.24-0.5-0.21-1.03,0.09-1.61l0.4-0.77c0.36-0.69,0.8-1.09,1.35-1.18
			c0.54-0.09,1.14,0.04,1.8,0.39c0.31,0.17,0.6,0.34,0.88,0.51c0.28,0.17,0.59,0.38,0.94,0.63l0.37-0.71
			c0.16-0.32,0.19-0.62,0.1-0.9c-0.1-0.28-0.34-0.52-0.74-0.72l-1.72-0.89c-0.3-0.15-0.46-0.29-0.49-0.43
			c-0.03-0.14-0.01-0.28,0.07-0.42l0.16-0.3l2.4,1.23c0.74,0.38,1.2,0.81,1.39,1.3c0.18,0.48,0.12,1.02-0.18,1.61L1192.88,280.28z"
			/>
		<path class="st2" d="M1199.66,276.19c-0.52-0.26-0.95-0.38-1.28-0.34c-0.34,0.04-0.62,0.27-0.83,0.69
			c-0.25,0.49-0.29,0.88-0.11,1.17c0.18,0.3,0.52,0.57,1.02,0.83l2.14,1.1l1.2-2.34L1199.66,276.19z M1198.21,279.41l-3.12,2
			l-1.04-0.53l3.25-2.09c-0.3-0.2-0.54-0.41-0.69-0.65c-0.16-0.23-0.26-0.46-0.3-0.71c-0.04-0.24-0.04-0.48,0.02-0.72
			c0.05-0.24,0.14-0.47,0.25-0.69c0.32-0.61,0.77-0.98,1.35-1.11c0.58-0.12,1.3,0.04,2.14,0.47l3.11,1.6l-3.58,6.96l-0.42-0.21
			c-0.19-0.1-0.3-0.22-0.35-0.35c-0.04-0.14-0.01-0.31,0.1-0.53l1.25-2.43L1198.21,279.41z"/>
	</g>
	<g>
		<g>
			<g>
				<g>
					<path class="st2" d="M741.55,69.19l0.17-0.29c0.11-0.18,0.23-0.29,0.37-0.32c0.14-0.03,0.33,0.02,0.56,0.15l2.05,1.17
						c0.41,0.23,0.73,0.31,0.97,0.23c0.24-0.08,0.44-0.27,0.6-0.55l0.72-1.25c-0.32-0.14-0.66-0.3-1.02-0.47
						c-0.35-0.17-0.72-0.36-1.1-0.58c-0.68-0.39-1.09-0.85-1.23-1.36c-0.13-0.52,0-1.14,0.42-1.86l2.4-4.2l0.95,0.54l-2.39,4.18
						c-0.26,0.45-0.37,0.83-0.35,1.13c0.02,0.3,0.26,0.57,0.69,0.82c0.33,0.18,0.68,0.37,1.05,0.55c0.38,0.18,0.72,0.33,1.02,0.45
						l3.07-5.38l0.95,0.54l-4.24,7.43c-0.14,0.24-0.31,0.45-0.51,0.62c-0.2,0.17-0.42,0.28-0.67,0.35
						c-0.25,0.06-0.52,0.06-0.82,0.01c-0.31-0.06-0.63-0.18-0.99-0.39L741.55,69.19z"/>
					<path class="st2" d="M749.78,69.54c0.26,0.15,0.47,0.24,0.63,0.27c0.17,0.03,0.31,0.01,0.43-0.06
						c0.12-0.07,0.24-0.18,0.35-0.35c0.11-0.17,0.24-0.37,0.38-0.62l2.59-4.53l4.96,2.83l-3.79,6.63l-0.4-0.23
						c-0.18-0.11-0.29-0.22-0.34-0.36c-0.04-0.13,0-0.31,0.12-0.51l3.02-5.28l-3.07-1.75l-2.06,3.6c-0.22,0.38-0.43,0.7-0.64,0.96
						c-0.21,0.25-0.43,0.43-0.68,0.54c-0.25,0.11-0.52,0.13-0.82,0.08c-0.3-0.05-0.66-0.19-1.07-0.42l-0.63-0.36l0.16-0.28
						c0.11-0.18,0.22-0.29,0.34-0.31C749.4,69.37,749.56,69.41,749.78,69.54"/>
					<path class="st2" d="M760.86,68.07l0.95,0.55l-3.31,5.8l6.69-3.88l1.24,0.71l-3.79,6.63l-0.41-0.23
						c-0.18-0.11-0.29-0.22-0.34-0.36c-0.04-0.13-0.01-0.3,0.11-0.51l2.76-4.82l-5.51,3.22c-0.18,0.11-0.38,0.18-0.61,0.2
						c-0.23,0.02-0.44-0.02-0.63-0.14l-0.4-0.23c-0.36-0.21-0.45-0.47-0.27-0.79L760.86,68.07z"/>
					<path class="st2" d="M771.17,81.76l-1.6,2.8l-0.41-0.23c-0.18-0.1-0.29-0.22-0.33-0.36c-0.04-0.13,0.01-0.3,0.12-0.51
						l0.85-1.48l-5.41-3.09l3.79-6.63l0.94,0.54l-3.35,5.87l3.58,2.04l3.35-5.87l0.95,0.54l-3.36,5.89L771.17,81.76z"/>
					<path class="st2" d="M776.05,80.88c-0.42-0.24-0.77-0.33-1.04-0.28c-0.28,0.05-0.54,0.28-0.77,0.69l-0.37,0.64
						c-0.12,0.2-0.17,0.39-0.17,0.57c0,0.18,0.04,0.34,0.11,0.48c0.07,0.14,0.17,0.27,0.3,0.38c0.13,0.11,0.25,0.2,0.38,0.27
						l1.84,1.05l1.49-2.62c-0.34-0.26-0.65-0.48-0.93-0.67C776.59,81.2,776.32,81.03,776.05,80.88 M776.84,85.98l-2.81-1.6
						c-0.65-0.37-1.08-0.81-1.3-1.32c-0.22-0.51-0.17-1.04,0.16-1.61l0.43-0.75c0.39-0.68,0.85-1.05,1.4-1.12
						c0.55-0.07,1.14,0.09,1.78,0.47c0.3,0.18,0.59,0.36,0.85,0.55c0.27,0.18,0.58,0.4,0.91,0.67l0.4-0.7
						c0.18-0.31,0.22-0.61,0.14-0.89c-0.08-0.28-0.32-0.53-0.71-0.75l-1.69-0.96c-0.29-0.17-0.44-0.32-0.47-0.45
						c-0.02-0.14,0.01-0.28,0.08-0.41l0.17-0.3l2.35,1.34c0.72,0.41,1.16,0.87,1.33,1.36c0.16,0.49,0.07,1.03-0.26,1.6L776.84,85.98
						z"/>
					<path class="st2" d="M792.13,83.77l-3.24-1.85l-0.72,1.25c-0.22,0.38-0.48,0.82-0.8,1.31c-0.32,0.49-0.67,1-1.07,1.5
						c-0.39,0.51-0.81,1-1.26,1.48c-0.46,0.48-0.92,0.89-1.4,1.23l4.29,2.45L792.13,83.77z M788.38,80.64l5.12,2.92l-4.63,8.12
						l0.72,0.41l-1.67,2.93l-0.42-0.24c-0.18-0.1-0.29-0.23-0.33-0.35c-0.03-0.13,0.01-0.3,0.13-0.51l0.92-1.6l-5.72-3.26
						l-1.24,2.17l-0.42-0.24c-0.18-0.1-0.28-0.22-0.32-0.35c-0.04-0.13,0.01-0.3,0.12-0.51l1.35-2.36l0.64,0.36
						c0.26-0.14,0.56-0.36,0.91-0.66c0.35-0.3,0.72-0.68,1.12-1.13c0.4-0.45,0.82-0.98,1.25-1.59c0.43-0.61,0.86-1.29,1.29-2.04
						L788.38,80.64z"/>
					<path class="st2" d="M793.21,90.43l2.87,1.64c0.15,0.09,0.27,0.12,0.34,0.1c0.07-0.02,0.15-0.11,0.23-0.25l0.37-0.65
						c0.23-0.41,0.28-0.81,0.14-1.22c-0.14-0.4-0.48-0.75-1.01-1.06c-0.49-0.28-0.94-0.38-1.37-0.3c-0.42,0.08-0.75,0.32-0.98,0.73
						L793.21,90.43z M795.47,95.6l-0.17,0.29c-0.08,0.14-0.18,0.24-0.3,0.28c-0.12,0.04-0.33-0.02-0.62-0.18l-1.97-1.13
						c-0.34-0.19-0.61-0.42-0.84-0.67c-0.22-0.26-0.38-0.53-0.47-0.82c-0.09-0.3-0.12-0.6-0.08-0.92c0.04-0.32,0.15-0.64,0.33-0.96
						l1.35-2.37c0.24-0.42,0.51-0.74,0.82-0.96c0.31-0.22,0.64-0.36,0.97-0.41c0.34-0.05,0.69-0.04,1.04,0.05
						c0.36,0.09,0.71,0.23,1.05,0.42c0.37,0.21,0.69,0.45,0.95,0.73c0.27,0.27,0.46,0.56,0.59,0.87c0.13,0.31,0.19,0.63,0.17,0.97
						c-0.02,0.34-0.13,0.67-0.32,1.01l-0.57,0.99c-0.15,0.26-0.32,0.42-0.52,0.48c-0.2,0.06-0.46,0-0.76-0.17l-3.35-1.92l-0.48,0.85
						c-0.24,0.43-0.3,0.83-0.18,1.2c0.12,0.37,0.36,0.67,0.73,0.87L795.47,95.6z"/>
					<path class="st2" d="M800.15,94.76c0.54,0.06,1.03,0.01,1.47-0.15c0.43-0.16,0.85-0.39,1.23-0.69c0.52-0.42,0.98-0.65,1.4-0.68
						c0.41-0.04,0.84,0.07,1.27,0.32l0.54,0.31l-0.12,0.21c-0.1,0.18-0.22,0.3-0.34,0.37c-0.12,0.07-0.3,0.03-0.54-0.11
						c-0.09-0.05-0.18-0.09-0.28-0.12c-0.1-0.03-0.21-0.04-0.34-0.01c-0.13,0.02-0.28,0.07-0.44,0.15
						c-0.17,0.08-0.35,0.21-0.55,0.38c-0.3,0.23-0.61,0.44-0.95,0.6c-0.34,0.17-0.74,0.27-1.2,0.32l0.84,4.76l-1.07-0.61
						L800.15,94.76z M801.59,91.31l-3.79,6.63l-0.42-0.24c-0.18-0.11-0.29-0.22-0.32-0.36c-0.03-0.13,0.01-0.31,0.13-0.51l3.46-6.05
						L801.59,91.31z"/>
					<path class="st2" d="M807.36,98.74c-0.42-0.24-0.76-0.33-1.04-0.28c-0.28,0.05-0.54,0.28-0.77,0.69l-0.37,0.64
						c-0.12,0.2-0.17,0.39-0.17,0.57c0,0.18,0.04,0.34,0.11,0.48c0.07,0.14,0.17,0.27,0.3,0.38c0.12,0.11,0.25,0.2,0.38,0.27
						l1.84,1.05l1.49-2.61c-0.34-0.26-0.64-0.48-0.93-0.67C807.9,99.07,807.63,98.9,807.36,98.74 M808.15,103.85l-2.81-1.6
						c-0.65-0.37-1.08-0.81-1.3-1.32c-0.22-0.5-0.17-1.04,0.16-1.61l0.43-0.75c0.39-0.68,0.85-1.05,1.4-1.12
						c0.55-0.07,1.14,0.09,1.78,0.47c0.3,0.18,0.59,0.36,0.85,0.55c0.27,0.18,0.58,0.4,0.91,0.67l0.4-0.69
						c0.18-0.31,0.22-0.6,0.14-0.89c-0.08-0.28-0.32-0.53-0.71-0.75l-1.69-0.96c-0.29-0.17-0.44-0.32-0.47-0.45
						c-0.02-0.14,0.01-0.28,0.08-0.42l0.17-0.3l2.35,1.34c0.72,0.41,1.16,0.87,1.33,1.36c0.16,0.49,0.07,1.03-0.26,1.6
						L808.15,103.85z"/>
					<path class="st2" d="M816.45,102.99c0.35-0.61,0.47-1.15,0.35-1.62c-0.12-0.47-0.45-0.86-1-1.17c-0.54-0.31-1.05-0.4-1.53-0.25
						c-0.47,0.14-0.88,0.51-1.21,1.11l-1.02,1.78c-0.34,0.6-0.45,1.14-0.32,1.62c0.13,0.47,0.46,0.86,0.98,1.17
						c0.31,0.17,0.6,0.28,0.87,0.3c0.27,0.03,0.53,0,0.75-0.08c0.23-0.08,0.43-0.22,0.62-0.4c0.19-0.18,0.35-0.41,0.5-0.67
						L816.45,102.99z M812.25,106.41c-0.84-0.48-1.38-1.07-1.6-1.74c-0.22-0.68-0.08-1.47,0.43-2.36l1.02-1.79
						c0.47-0.82,0.91-1.47,1.32-1.94c0.41-0.47,0.83-0.8,1.26-0.98c0.42-0.19,0.87-0.24,1.33-0.18c0.46,0.07,0.98,0.24,1.55,0.51
						c0.13,0.06,0.26,0.12,0.39,0.18c0.13,0.06,0.26,0.1,0.39,0.13c0.13,0.03,0.25,0.04,0.37,0.03c0.12-0.01,0.24-0.05,0.37-0.12
						l0.84,0.48c-0.32,0.41-0.72,0.61-1.19,0.6c-0.48-0.02-1.03-0.18-1.64-0.49c-0.57-0.29-1.07-0.41-1.49-0.38
						c-0.42,0.04-0.82,0.25-1.2,0.64c0.29-0.02,0.59,0,0.9,0.07c0.31,0.07,0.62,0.19,0.93,0.37c0.88,0.5,1.42,1.08,1.62,1.76
						c0.21,0.68,0.05,1.46-0.46,2.35l-1.02,1.79c-0.52,0.9-1.11,1.43-1.81,1.58C813.89,107.07,813.11,106.9,812.25,106.41"/>
					<path class="st2" d="M818.27,108.01l1.59,0.91c0.95,0.54,1.69,0.34,2.22-0.6l1.03-1.8c0.27-0.47,0.35-0.89,0.26-1.26
						c-0.1-0.37-0.38-0.7-0.87-0.98l-1.59-0.9L818.27,108.01z M820.41,102.05l2.54,1.45c1.58,0.9,1.95,2.08,1.12,3.55l-1.03,1.81
						c-0.43,0.75-0.95,1.19-1.56,1.3c-0.61,0.11-1.29-0.05-2.06-0.49l-1.59-0.9l-1.6,2.8l-0.41-0.23c-0.19-0.11-0.31-0.24-0.34-0.37
						c-0.04-0.14,0.01-0.31,0.13-0.51L820.41,102.05z"/>
					<path class="st2" d="M826.96,105.78l0.95,0.54l-3.31,5.8l6.69-3.88l1.24,0.71l-3.79,6.63l-0.41-0.23
						c-0.18-0.11-0.3-0.22-0.34-0.36c-0.04-0.13-0.01-0.3,0.11-0.51l2.76-4.82l-5.51,3.22c-0.18,0.11-0.38,0.18-0.61,0.2
						c-0.23,0.02-0.43-0.02-0.63-0.13l-0.4-0.23c-0.36-0.21-0.45-0.47-0.27-0.79L826.96,105.78z"/>
					<path class="st2" d="M835.46,118.42l-0.14,0.25c-0.08,0.14-0.18,0.23-0.32,0.29c-0.13,0.06-0.34,0-0.63-0.16l-1.59-0.91
						c-0.36-0.2-0.65-0.44-0.89-0.71c-0.24-0.27-0.41-0.56-0.52-0.87c-0.1-0.31-0.14-0.63-0.1-0.97c0.04-0.34,0.16-0.67,0.35-1.01
						l1.28-2.23c0.19-0.34,0.43-0.61,0.69-0.82c0.28-0.21,0.57-0.34,0.9-0.42c0.32-0.07,0.66-0.08,1.02-0.01
						c0.36,0.07,0.71,0.2,1.07,0.4l2.21,1.26l-0.13,0.23c-0.08,0.15-0.2,0.26-0.33,0.33c-0.14,0.07-0.34,0.02-0.61-0.13l-1.58-0.9
						c-0.47-0.27-0.91-0.36-1.29-0.26c-0.39,0.1-0.72,0.39-0.99,0.87l-1.26,2.22c-0.24,0.42-0.32,0.84-0.22,1.25
						c0.09,0.41,0.38,0.74,0.86,1.01L835.46,118.42z"/>
					<path class="st2" d="M841.36,115.04l-2.28-1.3l0.45-0.78l5.52,3.15l-0.13,0.23c-0.11,0.19-0.22,0.32-0.34,0.37
						c-0.11,0.05-0.3,0-0.55-0.15l-1.71-0.98l-3.34,5.85l-0.41-0.23c-0.18-0.11-0.3-0.22-0.34-0.36c-0.04-0.14,0-0.31,0.12-0.51
						L841.36,115.04z"/>
					<path class="st2" d="M848.95,121.52c0.14-0.25,0.24-0.5,0.31-0.76c0.07-0.26,0.08-0.51,0.04-0.75
						c-0.04-0.24-0.15-0.47-0.31-0.69c-0.16-0.22-0.4-0.42-0.7-0.59c-0.53-0.3-1.03-0.39-1.51-0.26c-0.47,0.13-0.89,0.5-1.23,1.1
						l-1.02,1.78c-0.34,0.59-0.45,1.13-0.34,1.61c0.11,0.48,0.44,0.88,0.99,1.19c0.54,0.31,1.04,0.4,1.51,0.27
						c0.47-0.13,0.88-0.51,1.23-1.13L848.95,121.52z M848.72,117.97c0.86,0.49,1.4,1.07,1.62,1.74c0.22,0.67,0.07,1.45-0.44,2.35
						l-1.02,1.79c-0.51,0.89-1.11,1.42-1.79,1.59c-0.69,0.17-1.47,0-2.34-0.5c-0.85-0.49-1.39-1.07-1.61-1.75
						c-0.22-0.68-0.07-1.47,0.44-2.37l1.02-1.78c0.51-0.89,1.11-1.41,1.81-1.56C847.11,117.33,847.88,117.49,848.72,117.97"/>
					<path class="st2" d="M853.38,121.9l-1.17,2.04l1.81,1.03c0.28,0.16,0.51,0.27,0.72,0.33c0.21,0.06,0.39,0.07,0.54,0.04
						c0.16-0.03,0.3-0.1,0.41-0.21c0.12-0.11,0.23-0.26,0.33-0.44c0.21-0.38,0.24-0.7,0.08-0.97c-0.16-0.27-0.47-0.53-0.92-0.78
						L853.38,121.9z M851.79,124.69l-1.31,2.29l1.78,1.02c0.56,0.32,1.03,0.48,1.39,0.48c0.36,0,0.66-0.21,0.9-0.62l0.04-0.07
						c0.24-0.42,0.28-0.78,0.12-1.09c-0.16-0.31-0.54-0.64-1.13-0.97L851.79,124.69z M855.63,122.14c0.8,0.46,1.31,0.94,1.53,1.43
						s0.16,1.03-0.17,1.61c-0.23,0.41-0.51,0.69-0.82,0.84c-0.31,0.15-0.64,0.19-0.97,0.11c0.36,0.31,0.57,0.65,0.63,1
						c0.05,0.36-0.02,0.7-0.2,1.03l-0.17,0.29c-0.22,0.39-0.48,0.65-0.76,0.79c-0.28,0.15-0.59,0.21-0.91,0.2
						c-0.32-0.01-0.64-0.08-0.98-0.21c-0.33-0.13-0.66-0.29-0.97-0.47l-2.72-1.55l3.79-6.63L855.63,122.14z"/>
				</g>
				<g>
					<path class="st2" d="M1087.63,62.53l-0.1-0.32c-0.07-0.2-0.07-0.37,0.01-0.49c0.07-0.12,0.23-0.23,0.49-0.31l2.24-0.73
						c0.45-0.15,0.72-0.34,0.82-0.57c0.1-0.23,0.1-0.51-0.01-0.81l-0.45-1.37c-0.32,0.14-0.67,0.29-1.03,0.44
						c-0.36,0.15-0.75,0.29-1.17,0.43c-0.75,0.25-1.36,0.25-1.83,0c-0.48-0.25-0.84-0.77-1.1-1.56l-1.51-4.59l1.04-0.34l1.51,4.57
						c0.16,0.49,0.36,0.83,0.6,1.02c0.24,0.18,0.6,0.2,1.07,0.04c0.36-0.12,0.73-0.26,1.12-0.41c0.39-0.16,0.73-0.31,1.02-0.45
						l-1.94-5.89l1.04-0.34l2.68,8.13c0.09,0.26,0.13,0.52,0.12,0.78c-0.01,0.26-0.07,0.51-0.19,0.73c-0.12,0.23-0.3,0.43-0.55,0.62
						c-0.24,0.19-0.56,0.35-0.95,0.48L1087.63,62.53z"/>
					<path class="st2" d="M1093.41,56.65c0.28-0.09,0.49-0.19,0.62-0.29c0.13-0.1,0.21-0.23,0.25-0.36c0.03-0.14,0.02-0.3-0.02-0.49
						c-0.05-0.19-0.11-0.42-0.2-0.69l-1.63-4.96l5.43-1.79l2.39,7.26l-0.43,0.14c-0.2,0.07-0.37,0.07-0.49,0.01
						c-0.13-0.06-0.23-0.2-0.3-0.43l-1.9-5.78l-3.36,1.11l1.29,3.94c0.14,0.42,0.23,0.79,0.28,1.12c0.05,0.33,0.03,0.61-0.06,0.87
						c-0.09,0.25-0.25,0.48-0.49,0.67s-0.58,0.36-1.03,0.51l-0.69,0.23l-0.1-0.3c-0.06-0.2-0.06-0.36,0-0.46
						C1093.02,56.82,1093.17,56.73,1093.41,56.65"/>
					<path class="st2" d="M1099.74,47.44l1.04-0.34l2.08,6.34l1.6-7.56l1.36-0.44l2.39,7.26l-0.45,0.15
						c-0.2,0.07-0.37,0.07-0.49,0.01s-0.23-0.2-0.3-0.43l-1.74-5.28l-1.3,6.25c-0.04,0.21-0.12,0.4-0.26,0.58
						c-0.14,0.18-0.31,0.31-0.52,0.38l-0.44,0.14c-0.39,0.13-0.65,0.02-0.77-0.33L1099.74,47.44z"/>
					<path class="st2" d="M1116.81,48.95l1.01,3.06l-0.45,0.15c-0.2,0.07-0.36,0.07-0.49,0.01c-0.12-0.06-0.22-0.21-0.3-0.44
						l-0.53-1.62l-5.92,1.95l-2.39-7.26l1.03-0.34l2.11,6.42l3.91-1.29l-2.12-6.42l1.04-0.34l2.12,6.44L1116.81,48.95z"/>
					<path class="st2" d="M1119.43,44.75c-0.46,0.15-0.76,0.34-0.91,0.58c-0.15,0.24-0.15,0.58,0,1.03l0.23,0.71
						c0.07,0.22,0.17,0.39,0.3,0.51c0.13,0.12,0.28,0.2,0.43,0.24c0.16,0.05,0.31,0.06,0.48,0.04c0.16-0.02,0.32-0.05,0.46-0.1
						l2.02-0.67l-0.94-2.86c-0.41,0.08-0.79,0.16-1.12,0.24C1120.03,44.56,1119.72,44.65,1119.43,44.75 M1123.75,47.58l-3.07,1.01
						c-0.71,0.24-1.33,0.26-1.85,0.08c-0.52-0.18-0.88-0.58-1.08-1.19l-0.27-0.82c-0.24-0.74-0.21-1.33,0.1-1.79
						c0.31-0.46,0.83-0.79,1.55-1.01c0.34-0.1,0.66-0.19,0.98-0.27c0.31-0.08,0.68-0.16,1.11-0.23l-0.25-0.76
						c-0.11-0.34-0.3-0.57-0.57-0.7c-0.26-0.13-0.61-0.12-1.03,0.02l-1.84,0.61c-0.32,0.11-0.53,0.12-0.65,0.05
						c-0.12-0.08-0.2-0.19-0.25-0.34l-0.11-0.32l2.57-0.85c0.79-0.26,1.42-0.29,1.89-0.08c0.47,0.21,0.81,0.63,1.03,1.26
						L1123.75,47.58z"/>
					<path class="st2" d="M1139.1,42.52l-0.45,0.15c-0.2,0.07-0.37,0.07-0.49,0.01c-0.12-0.07-0.22-0.2-0.29-0.41l-2.48-7.52
						l-1.11,6.12c-0.04,0.2-0.12,0.39-0.22,0.56c-0.1,0.18-0.27,0.3-0.5,0.38c-0.22,0.07-0.43,0.07-0.62-0.02
						c-0.19-0.08-0.36-0.18-0.5-0.3l-4.54-4.28l2.67,8.11l-0.45,0.15c-0.19,0.07-0.36,0.06-0.48,0c-0.13-0.06-0.22-0.18-0.27-0.33
						l-3.06-9.31l1.13-0.37l5.36,5.11c0.17,0.17,0.31,0.23,0.4,0.2c0.1-0.04,0.16-0.17,0.2-0.4l1.29-7.3l1.13-0.37L1139.1,42.52z"/>
					<path class="st2" d="M1142.24,44.54l-0.1-0.32c-0.07-0.2-0.06-0.37,0-0.49c0.07-0.13,0.24-0.23,0.49-0.31l2.24-0.74
						c0.45-0.15,0.72-0.34,0.82-0.57c0.1-0.23,0.1-0.5-0.01-0.81l-0.45-1.37c-0.32,0.14-0.66,0.29-1.03,0.44
						c-0.37,0.15-0.76,0.29-1.17,0.43c-0.75,0.25-1.36,0.25-1.83,0c-0.48-0.25-0.85-0.77-1.11-1.56l-1.51-4.59l1.04-0.34l1.51,4.58
						c0.16,0.49,0.36,0.83,0.6,1.01c0.24,0.18,0.6,0.2,1.07,0.04c0.36-0.12,0.73-0.26,1.12-0.41c0.39-0.16,0.72-0.31,1.02-0.45
						l-1.94-5.88l1.04-0.34l2.67,8.13c0.09,0.26,0.13,0.52,0.12,0.78c-0.01,0.26-0.07,0.51-0.19,0.73
						c-0.12,0.23-0.31,0.43-0.55,0.61c-0.24,0.19-0.56,0.35-0.95,0.48L1142.24,44.54z"/>
					<path class="st2" d="M1153,37.02l0.09,0.28c0.05,0.15,0.05,0.29,0,0.43c-0.05,0.14-0.23,0.26-0.55,0.36l-1.74,0.57
						c-0.39,0.13-0.76,0.19-1.12,0.19c-0.36-0.01-0.69-0.07-0.99-0.2c-0.3-0.13-0.56-0.32-0.79-0.57c-0.22-0.25-0.4-0.56-0.52-0.93
						l-0.8-2.44c-0.12-0.37-0.17-0.72-0.14-1.07c0.03-0.34,0.12-0.66,0.29-0.94c0.16-0.29,0.39-0.54,0.68-0.76
						c0.29-0.22,0.62-0.4,1.01-0.52l2.41-0.79l0.08,0.25c0.05,0.16,0.06,0.31,0.02,0.46c-0.04,0.15-0.21,0.26-0.51,0.36l-1.72,0.57
						c-0.52,0.17-0.87,0.44-1.06,0.79c-0.18,0.35-0.19,0.79-0.02,1.32l0.8,2.42c0.16,0.46,0.42,0.8,0.78,1
						c0.37,0.2,0.81,0.21,1.33,0.04L1153,37.02z"/>
					<path class="st2" d="M1157.84,31.23c-0.09-0.27-0.21-0.52-0.35-0.75c-0.15-0.22-0.33-0.4-0.53-0.53
						c-0.21-0.12-0.45-0.2-0.72-0.23c-0.28-0.03-0.58,0.01-0.91,0.12c-0.58,0.19-0.98,0.51-1.2,0.95c-0.22,0.44-0.22,0.99,0,1.65
						l0.64,1.95c0.21,0.65,0.53,1.09,0.97,1.33c0.43,0.24,0.95,0.25,1.55,0.06c0.59-0.19,0.99-0.51,1.21-0.94
						c0.22-0.44,0.21-0.99-0.01-1.67L1157.84,31.23z M1155.05,29.02c0.94-0.31,1.73-0.32,2.38-0.03c0.64,0.28,1.13,0.92,1.45,1.9
						l0.64,1.95c0.32,0.98,0.31,1.78-0.02,2.4c-0.33,0.62-0.98,1.09-1.94,1.4c-0.93,0.31-1.72,0.31-2.37,0.02
						c-0.65-0.29-1.14-0.93-1.46-1.92l-0.64-1.95c-0.32-0.98-0.3-1.77,0.05-2.39C1153.49,29.79,1154.13,29.32,1155.05,29.02"/>
					<path class="st2" d="M1162.73,33.26l1.74-0.57c1.03-0.34,1.39-1.02,1.05-2.05l-0.65-1.97c-0.17-0.51-0.42-0.85-0.76-1.03
						c-0.34-0.18-0.77-0.19-1.31-0.01l-1.74,0.57L1162.73,33.26z M1159.74,27.68l2.78-0.92c1.73-0.57,2.86-0.06,3.39,1.54l0.65,1.98
						c0.27,0.83,0.25,1.5-0.08,2.03c-0.33,0.52-0.9,0.93-1.74,1.2L1163,34.1l1.01,3.06l-0.45,0.15c-0.21,0.07-0.38,0.07-0.5,0.01
						c-0.12-0.07-0.22-0.21-0.3-0.44L1159.74,27.68z"/>
					<path class="st2" d="M1170.29,32.25l-0.45,0.15c-0.21,0.07-0.38,0.07-0.5,0c-0.12-0.06-0.23-0.22-0.3-0.46l-2.17-6.61
						l4.81-1.58l0.08,0.25c0.06,0.17,0.06,0.33,0.02,0.47c-0.05,0.14-0.2,0.26-0.46,0.34l-3.12,1.03L1170.29,32.25z"/>
					<path class="st2" d="M1180.18,28.07l0.09,0.28c0.05,0.15,0.05,0.29,0.01,0.43c-0.05,0.14-0.23,0.26-0.54,0.36l-1.74,0.57
						c-0.39,0.13-0.76,0.19-1.12,0.19c-0.36-0.01-0.69-0.07-0.99-0.2c-0.3-0.13-0.57-0.32-0.79-0.57c-0.22-0.25-0.4-0.56-0.52-0.93
						l-0.8-2.44c-0.12-0.37-0.17-0.72-0.14-1.07s0.12-0.66,0.29-0.94c0.16-0.29,0.38-0.54,0.67-0.76c0.29-0.22,0.63-0.39,1.01-0.52
						l2.41-0.79l0.08,0.25c0.05,0.16,0.06,0.31,0.02,0.46c-0.04,0.15-0.21,0.26-0.51,0.36l-1.73,0.57
						c-0.52,0.17-0.87,0.44-1.06,0.79c-0.18,0.35-0.19,0.79-0.02,1.32l0.8,2.42c0.15,0.47,0.42,0.8,0.78,1
						c0.37,0.2,0.81,0.21,1.33,0.04L1180.18,28.07z"/>
					<path class="st2" d="M1182.21,24.19c0.41-0.36,0.7-0.76,0.87-1.19c0.18-0.43,0.28-0.89,0.31-1.38
						c0.04-0.66,0.18-1.16,0.43-1.49c0.25-0.33,0.61-0.57,1.09-0.73l0.59-0.19l0.08,0.23c0.06,0.2,0.08,0.36,0.05,0.5
						c-0.03,0.13-0.18,0.24-0.44,0.33c-0.1,0.03-0.19,0.08-0.28,0.13c-0.09,0.05-0.17,0.13-0.24,0.25
						c-0.07,0.11-0.13,0.25-0.18,0.43c-0.05,0.18-0.08,0.4-0.09,0.66c-0.02,0.38-0.08,0.75-0.19,1.11c-0.1,0.37-0.29,0.74-0.57,1.11
						l4.1,2.57l-1.17,0.39L1182.21,24.19z M1180.62,20.81l2.39,7.26l-0.46,0.15c-0.2,0.07-0.37,0.07-0.48,0
						c-0.12-0.07-0.22-0.22-0.29-0.45l-2.18-6.62L1180.62,20.81z"/>
					<path class="st2" d="M1192.24,19.9c-0.09-0.27-0.21-0.52-0.36-0.75c-0.15-0.22-0.32-0.4-0.53-0.53
						c-0.21-0.12-0.45-0.2-0.72-0.23c-0.27-0.03-0.58,0.01-0.91,0.12c-0.58,0.19-0.98,0.51-1.2,0.95c-0.22,0.44-0.22,0.99,0,1.65
						l0.64,1.95c0.21,0.65,0.54,1.09,0.97,1.33c0.43,0.24,0.95,0.26,1.55,0.06c0.59-0.19,0.99-0.51,1.21-0.94
						c0.22-0.44,0.21-0.99-0.01-1.67L1192.24,19.9z M1189.45,17.69c0.94-0.31,1.73-0.32,2.38-0.03c0.65,0.28,1.13,0.92,1.45,1.91
						l0.64,1.95c0.32,0.98,0.31,1.77-0.02,2.39c-0.33,0.63-0.98,1.09-1.94,1.4c-0.93,0.31-1.72,0.32-2.37,0.02
						c-0.65-0.29-1.14-0.93-1.46-1.92l-0.64-1.95c-0.32-0.98-0.3-1.78,0.05-2.4C1187.89,18.46,1188.53,18,1189.45,17.69"/>
					<path class="st2" d="M1197.59,23.26l-0.45,0.15c-0.21,0.07-0.38,0.07-0.5,0c-0.12-0.07-0.23-0.22-0.31-0.46l-2.17-6.61
						l4.81-1.58l0.08,0.25c0.06,0.17,0.06,0.33,0.02,0.47c-0.05,0.14-0.2,0.26-0.46,0.34l-3.12,1.03L1197.59,23.26z"/>
					<path class="st2" d="M1205.86,15.41c-0.09-0.27-0.21-0.52-0.36-0.75c-0.14-0.22-0.32-0.4-0.53-0.53
						c-0.21-0.12-0.44-0.2-0.72-0.23c-0.27-0.03-0.58,0.01-0.91,0.12c-0.58,0.19-0.98,0.51-1.2,0.95c-0.22,0.44-0.22,0.99,0,1.65
						l0.64,1.95c0.21,0.65,0.54,1.09,0.97,1.33s0.95,0.26,1.55,0.06c0.59-0.19,0.99-0.51,1.21-0.94c0.22-0.44,0.21-0.99-0.01-1.67
						L1205.86,15.41z M1203.07,13.2c0.94-0.31,1.73-0.32,2.38-0.03c0.65,0.28,1.13,0.92,1.45,1.91l0.64,1.95
						c0.32,0.98,0.31,1.77-0.02,2.39c-0.33,0.63-0.98,1.09-1.94,1.4c-0.93,0.31-1.72,0.32-2.37,0.02c-0.65-0.29-1.14-0.93-1.46-1.92
						l-0.64-1.95c-0.32-0.98-0.3-1.78,0.05-2.4C1201.51,13.97,1202.15,13.51,1203.07,13.2"/>
				</g>
				<g>
					<path class="st2" d="M1044.14,237.44c0.41-0.01,0.79-0.06,1.15-0.17c0.36-0.11,0.66-0.26,0.92-0.47
						c0.26-0.21,0.46-0.46,0.6-0.77c0.15-0.31,0.22-0.67,0.21-1.07c-0.01-0.4-0.09-0.75-0.24-1.05c-0.15-0.3-0.36-0.55-0.63-0.75
						c-0.27-0.2-0.58-0.35-0.94-0.45c-0.36-0.1-0.75-0.14-1.16-0.13l-1.69,0.03c-0.96,0.01-1.68,0.23-2.17,0.64
						c-0.49,0.41-0.73,1.02-0.71,1.83c0.01,0.81,0.27,1.41,0.77,1.81c0.5,0.4,1.24,0.59,2.2,0.57L1044.14,237.44z M1047.82,234.95
						c0.02,1.14-0.3,1.99-0.94,2.55c-0.64,0.55-1.56,0.84-2.74,0.86l-1.69,0.03c-1.18,0.02-2.1-0.24-2.76-0.78
						c-0.66-0.54-0.99-1.38-1.01-2.52c-0.02-1.14,0.29-1.99,0.93-2.55c0.64-0.56,1.56-0.84,2.75-0.86l1.68-0.03
						c1.19-0.02,2.11,0.24,2.77,0.78C1047.46,232.97,1047.8,233.81,1047.82,234.95"/>
					<path class="st2" d="M1039.66,239.99c0.01,0.25,0.03,0.44,0.08,0.58c0.05,0.13,0.13,0.23,0.23,0.29c0.1,0.06,0.24,0.09,0.4,0.1
						c0.17,0.01,0.37,0.01,0.61,0.01l4.44-0.07l0.08,4.86l-6.5,0.1l-0.01-0.39c0-0.18,0.04-0.31,0.12-0.4
						c0.08-0.09,0.22-0.13,0.43-0.14l5.18-0.08l-0.05-3.01l-3.53,0.06c-0.38,0-0.7-0.01-0.98-0.06c-0.27-0.04-0.51-0.13-0.69-0.27
						c-0.18-0.14-0.32-0.33-0.42-0.57c-0.09-0.24-0.14-0.56-0.15-0.96l-0.01-0.61l0.27,0c0.18,0,0.3,0.04,0.37,0.12
						C1039.62,239.63,1039.66,239.78,1039.66,239.99"/>
					<path class="st2" d="M1043.24,251.59c0.24-0.01,0.47-0.04,0.69-0.1c0.22-0.06,0.41-0.16,0.56-0.3
						c0.16-0.14,0.28-0.31,0.37-0.53c0.09-0.22,0.14-0.47,0.13-0.77c-0.01-0.52-0.17-0.92-0.47-1.21c-0.3-0.29-0.75-0.43-1.34-0.42
						l-1.74,0.03c-0.58,0.01-1.02,0.16-1.32,0.45c-0.3,0.29-0.45,0.7-0.44,1.24c0.01,0.53,0.16,0.93,0.46,1.22
						c0.3,0.29,0.75,0.43,1.36,0.42L1043.24,251.59z M1045.74,249.89c0.01,0.84-0.18,1.49-0.57,1.94c-0.39,0.45-1.03,0.68-1.92,0.7
						l-1.75,0.03c-0.87,0.01-1.52-0.19-1.94-0.63c-0.42-0.43-0.64-1.07-0.65-1.93c-0.01-0.84,0.18-1.48,0.58-1.93
						c0.4-0.46,1.04-0.69,1.93-0.7l1.75-0.03c0.87-0.01,1.52,0.2,1.93,0.65C1045.51,248.43,1045.72,249.06,1045.74,249.89"/>
					<path class="st2" d="M1039.15,255.11l-0.01-0.4c0-0.18,0.04-0.31,0.12-0.4c0.08-0.08,0.22-0.13,0.43-0.13l5.94-0.09l0.02,0.92
						l-2.63,0.04l0.05,3.4l2.63-0.04l0.01,0.93l-6.5,0.1l-0.01-0.4c0-0.19,0.03-0.32,0.12-0.41c0.08-0.09,0.22-0.13,0.43-0.13
						l2.86-0.05c-0.1-0.08-0.18-0.19-0.24-0.31c-0.06-0.13-0.1-0.28-0.1-0.46l-0.04-2.62L1039.15,255.11z"/>
					<path class="st2" d="M1042.88,261.88l0.04,2.81c0,0.15,0.03,0.24,0.08,0.29c0.05,0.04,0.14,0.06,0.29,0.06l0.64-0.01
						c0.4,0,0.72-0.15,0.95-0.42c0.23-0.28,0.34-0.68,0.34-1.2c-0.01-0.48-0.13-0.86-0.37-1.13c-0.24-0.28-0.56-0.41-0.96-0.41
						L1042.88,261.88z M1040.07,265.77l-0.28,0c-0.14,0-0.26-0.03-0.34-0.1c-0.09-0.07-0.13-0.25-0.13-0.53l-0.03-1.93
						c0-0.33,0.04-0.63,0.13-0.9c0.09-0.28,0.22-0.51,0.39-0.71c0.18-0.19,0.39-0.35,0.64-0.46c0.25-0.11,0.53-0.17,0.85-0.17
						l2.32-0.04c0.41-0.01,0.76,0.06,1.06,0.18c0.3,0.13,0.54,0.3,0.72,0.53c0.18,0.23,0.32,0.49,0.41,0.78
						c0.09,0.3,0.14,0.61,0.15,0.96c0,0.36-0.03,0.7-0.12,1.01c-0.09,0.31-0.21,0.58-0.38,0.81c-0.17,0.23-0.38,0.41-0.63,0.54
						c-0.25,0.13-0.55,0.2-0.88,0.2l-0.97,0.02c-0.25,0-0.44-0.06-0.57-0.18c-0.13-0.12-0.2-0.33-0.2-0.63l-0.05-3.28l-0.83,0.01
						c-0.42,0-0.74,0.13-0.96,0.39c-0.22,0.25-0.33,0.55-0.32,0.91L1040.07,265.77z"/>
					<path class="st2" d="M1040.18,273.76l-2.74,0.04l-0.01-0.4c0-0.18,0.04-0.31,0.12-0.4c0.08-0.08,0.22-0.13,0.43-0.13l1.45-0.02
						l-0.08-5.3l6.5-0.1l0.01,0.92l-5.75,0.09l0.06,3.5l5.75-0.09l0.01,0.93l-5.76,0.09L1040.18,273.76z"/>
					<path class="st2" d="M1042.83,276.4c0.19,0.42,0.44,0.76,0.74,1.01c0.31,0.25,0.66,0.45,1.05,0.6c0.53,0.19,0.9,0.44,1.11,0.72
						c0.2,0.29,0.31,0.65,0.32,1.07l0.01,0.53l-0.2,0c-0.18,0-0.31-0.03-0.42-0.09c-0.1-0.06-0.15-0.21-0.16-0.45
						c0-0.09-0.01-0.17-0.03-0.26c-0.02-0.09-0.07-0.17-0.14-0.26c-0.07-0.09-0.17-0.17-0.3-0.25c-0.13-0.09-0.3-0.17-0.51-0.24
						c-0.3-0.11-0.59-0.26-0.85-0.44c-0.27-0.18-0.52-0.42-0.75-0.74l-3.13,2.68l-0.02-1.05L1042.83,276.4z M1045.98,275.96
						l-6.5,0.1l-0.01-0.41c0-0.18,0.04-0.31,0.12-0.39c0.09-0.08,0.23-0.12,0.44-0.12l5.93-0.09L1045.98,275.96z"/>
					<path class="st2" d="M1043.04,283.41c-0.01-0.41-0.09-0.7-0.24-0.89c-0.16-0.18-0.44-0.27-0.84-0.26l-0.63,0.01
						c-0.2,0.01-0.36,0.04-0.49,0.12c-0.13,0.08-0.23,0.17-0.3,0.29c-0.07,0.11-0.12,0.24-0.15,0.38c-0.03,0.14-0.04,0.27-0.04,0.39
						l0.03,1.81l2.56-0.04c0.04-0.36,0.07-0.68,0.08-0.97C1043.04,283.95,1043.04,283.67,1043.04,283.41 M1039.64,286.2l-0.04-2.75
						c-0.01-0.64,0.12-1.15,0.4-1.52c0.28-0.38,0.69-0.57,1.24-0.58l0.73-0.01c0.66-0.01,1.13,0.17,1.43,0.54
						c0.29,0.37,0.43,0.87,0.42,1.51c0,0.3-0.01,0.58-0.03,0.86c-0.01,0.28-0.05,0.59-0.1,0.96l0.68-0.01
						c0.3-0.01,0.54-0.1,0.71-0.28c0.17-0.18,0.25-0.46,0.24-0.84l-0.03-1.65c0-0.28,0.04-0.46,0.13-0.54
						c0.09-0.08,0.2-0.12,0.34-0.12l0.29,0l0.04,2.3c0.01,0.71-0.13,1.23-0.42,1.56c-0.29,0.33-0.72,0.5-1.29,0.51L1039.64,286.2z"
						/>
					<path class="st2" d="M1045.43,289.65c-0.01-0.5-0.09-0.86-0.25-1.1c-0.16-0.24-0.45-0.36-0.85-0.35
						c-0.47,0.01-0.77,0.14-0.92,0.39c-0.15,0.25-0.22,0.62-0.21,1.1l0.03,2.04l2.23-0.03L1045.43,289.65z M1042.43,289.85
						l-2.76-1.54l-0.01-0.99l2.87,1.6c0.03-0.31,0.09-0.57,0.21-0.77c0.11-0.21,0.24-0.38,0.41-0.51c0.16-0.13,0.35-0.22,0.55-0.28
						c0.2-0.06,0.41-0.08,0.62-0.09c0.59-0.01,1.05,0.18,1.37,0.57c0.32,0.39,0.49,0.99,0.5,1.8l0.05,2.97l-6.66,0.1l-0.01-0.4
						c0-0.18,0.04-0.32,0.12-0.4c0.09-0.09,0.23-0.13,0.44-0.14l2.32-0.04L1042.43,289.85z"/>
					<path class="st2" d="M1037.36,298.14l0.28,0c0.18,0,0.32,0.04,0.4,0.13c0.09,0.09,0.13,0.25,0.13,0.48l0.03,2.01
						c0.01,0.4,0.09,0.67,0.26,0.81c0.16,0.14,0.38,0.21,0.66,0.2l1.23-0.02c-0.04-0.3-0.07-0.61-0.1-0.95
						c-0.03-0.33-0.05-0.68-0.05-1.05c-0.01-0.67,0.15-1.16,0.46-1.49c0.32-0.32,0.84-0.49,1.55-0.5l4.11-0.06l0.02,0.93l-4.1,0.06
						c-0.44,0.01-0.77,0.09-0.98,0.23c-0.21,0.15-0.31,0.44-0.3,0.86c0.01,0.32,0.02,0.66,0.05,1.01c0.03,0.36,0.06,0.67,0.11,0.94
						l5.27-0.08l0.02,0.93l-7.28,0.11c-0.24,0-0.46-0.03-0.67-0.1c-0.21-0.07-0.39-0.18-0.54-0.34c-0.15-0.15-0.27-0.36-0.36-0.6
						c-0.09-0.24-0.14-0.54-0.15-0.89L1037.36,298.14z"/>
					<path class="st2" d="M1040.67,304.32c0,0.25,0.03,0.44,0.08,0.58c0.05,0.13,0.12,0.23,0.23,0.29c0.1,0.06,0.24,0.09,0.4,0.1
						c0.17,0.01,0.37,0.01,0.61,0.01l4.44-0.07l0.08,4.86l-6.5,0.1l-0.01-0.39c0-0.18,0.04-0.32,0.12-0.4
						c0.08-0.09,0.22-0.13,0.43-0.14l5.17-0.08l-0.05-3.01l-3.53,0.06c-0.38,0.01-0.7-0.01-0.98-0.06
						c-0.28-0.04-0.51-0.13-0.69-0.27c-0.18-0.14-0.32-0.32-0.42-0.57c-0.09-0.24-0.15-0.56-0.15-0.96l-0.01-0.61l0.27,0
						c0.18-0.01,0.3,0.04,0.37,0.12C1040.63,303.96,1040.67,304.11,1040.67,304.32"/>
					<path class="st2" d="M1046.55,311.79l0.01,0.93l-5.68,0.09l5.73,3.21l0.02,1.22l-6.5,0.1l-0.01-0.4c0-0.18,0.04-0.32,0.11-0.4
						c0.08-0.09,0.22-0.13,0.42-0.14l4.72-0.07l-4.74-2.64c-0.16-0.09-0.3-0.21-0.41-0.36c-0.11-0.16-0.17-0.33-0.17-0.52
						l-0.01-0.39c0-0.35,0.15-0.53,0.47-0.54L1046.55,311.79z"/>
					<path class="st2" d="M1040.99,325.28l-2.74,0.04l-0.01-0.4c0-0.18,0.04-0.31,0.12-0.4c0.08-0.08,0.22-0.13,0.43-0.13l1.45-0.02
						l-0.08-5.3l6.5-0.1l0.01,0.92l-5.75,0.09l0.06,3.5l5.75-0.09l0.01,0.93l-5.76,0.09L1040.99,325.28z"/>
					<path class="st2" d="M1043.75,328.47c-0.01-0.41-0.09-0.71-0.24-0.89c-0.16-0.18-0.44-0.27-0.84-0.27l-0.63,0.01
						c-0.2,0-0.36,0.04-0.49,0.12c-0.13,0.08-0.23,0.17-0.3,0.29c-0.07,0.12-0.12,0.24-0.15,0.38c-0.03,0.14-0.04,0.27-0.03,0.4
						l0.03,1.81l2.56-0.04c0.04-0.36,0.07-0.68,0.09-0.98C1043.75,329,1043.75,328.72,1043.75,328.47 M1040.35,331.26l-0.04-2.75
						c-0.01-0.64,0.12-1.15,0.4-1.52c0.28-0.38,0.69-0.57,1.24-0.58l0.73-0.01c0.66-0.01,1.13,0.17,1.43,0.54
						c0.29,0.37,0.43,0.87,0.42,1.51c0,0.3-0.01,0.59-0.03,0.86c-0.01,0.27-0.05,0.6-0.1,0.96l0.68-0.01c0.3,0,0.54-0.1,0.71-0.28
						c0.17-0.18,0.25-0.46,0.24-0.84l-0.03-1.65c0-0.28,0.04-0.46,0.13-0.54c0.09-0.08,0.21-0.12,0.34-0.12l0.29,0l0.04,2.3
						c0.01,0.71-0.13,1.23-0.42,1.56c-0.29,0.33-0.72,0.5-1.28,0.51L1040.35,331.26z"/>
				</g>
				<g>
					<path class="st2" d="M705.63,261.54c0.24-0.42,0.41-0.84,0.51-1.26c0.11-0.42,0.13-0.82,0.08-1.21
						c-0.05-0.38-0.19-0.74-0.42-1.07c-0.23-0.33-0.55-0.61-0.96-0.85c-0.41-0.23-0.81-0.36-1.21-0.39
						c-0.4-0.02-0.77,0.04-1.13,0.19c-0.36,0.15-0.7,0.37-1.01,0.68c-0.31,0.3-0.59,0.67-0.83,1.09l-0.99,1.72
						c-0.56,0.97-0.77,1.82-0.65,2.56c0.13,0.74,0.6,1.35,1.43,1.82c0.83,0.47,1.59,0.57,2.29,0.3c0.71-0.27,1.34-0.89,1.9-1.87
						L705.63,261.54z M705.31,256.34c1.16,0.66,1.84,1.48,2.02,2.46c0.18,0.98-0.08,2.07-0.77,3.28l-0.98,1.72
						c-0.69,1.2-1.5,1.98-2.44,2.32c-0.94,0.34-1.99,0.18-3.15-0.48c-1.16-0.66-1.84-1.48-2.02-2.46c-0.18-0.98,0.08-2.07,0.77-3.28
						l0.98-1.71c0.69-1.21,1.51-1.99,2.44-2.33C703.1,255.52,704.15,255.68,705.31,256.34"/>
					<path class="st2" d="M710.07,263.42l-2.28-1.3l0.45-0.79l5.52,3.15l-0.13,0.23c-0.11,0.2-0.23,0.32-0.34,0.37
						c-0.11,0.05-0.3,0-0.55-0.15l-1.71-0.97l-3.34,5.85l-0.41-0.23c-0.19-0.11-0.3-0.22-0.34-0.36c-0.04-0.14,0-0.31,0.12-0.51
						L710.07,263.42z"/>
					<path class="st2" d="M712.66,271.03l1.59,0.91c0.95,0.54,1.69,0.34,2.22-0.6l1.03-1.8c0.27-0.47,0.35-0.89,0.26-1.26
						c-0.1-0.37-0.38-0.7-0.87-0.98l-1.59-0.91L712.66,271.03z M714.8,265.07l2.54,1.45c1.58,0.9,1.96,2.08,1.12,3.55l-1.03,1.81
						c-0.43,0.75-0.95,1.19-1.56,1.3c-0.61,0.11-1.29-0.05-2.06-0.49l-1.59-0.91l-1.6,2.8l-0.41-0.23
						c-0.19-0.11-0.31-0.24-0.34-0.37c-0.04-0.14,0.01-0.31,0.13-0.52L714.8,265.07z"/>
					<path class="st2" d="M721.46,273.02c-0.42-0.24-0.76-0.33-1.04-0.28c-0.28,0.05-0.53,0.28-0.77,0.69l-0.37,0.64
						c-0.12,0.2-0.17,0.39-0.17,0.57c0,0.18,0.04,0.34,0.11,0.48c0.08,0.14,0.17,0.27,0.3,0.38c0.12,0.11,0.25,0.2,0.38,0.27
						l1.85,1.05l1.49-2.62c-0.33-0.26-0.64-0.48-0.93-0.67C722.01,273.34,721.73,273.17,721.46,273.02 M722.26,278.13l-2.81-1.6
						c-0.65-0.37-1.08-0.81-1.3-1.32c-0.22-0.51-0.16-1.04,0.16-1.6l0.42-0.75c0.39-0.67,0.85-1.05,1.4-1.12
						c0.55-0.07,1.14,0.09,1.78,0.48c0.3,0.18,0.59,0.36,0.86,0.55c0.27,0.18,0.57,0.4,0.91,0.67l0.4-0.7
						c0.18-0.31,0.23-0.61,0.14-0.89c-0.08-0.28-0.32-0.53-0.7-0.75l-1.69-0.96c-0.29-0.17-0.45-0.32-0.47-0.45
						c-0.02-0.14,0.01-0.28,0.08-0.42l0.17-0.29l2.35,1.34c0.72,0.41,1.16,0.86,1.32,1.36c0.16,0.49,0.08,1.03-0.26,1.61
						L722.26,278.13z"/>
					<path class="st2" d="M731.62,275.71l-2.41-1.38l-0.29,0.5c-0.22,0.39-0.46,0.78-0.71,1.19c-0.26,0.41-0.53,0.8-0.82,1.16
						c-0.29,0.37-0.59,0.7-0.92,1.01c-0.33,0.31-0.66,0.55-1.01,0.74l3.25,1.86L731.62,275.71z M728.72,273.02l4.3,2.45l-3.35,5.87
						l0.6,0.34l-1.58,2.78l-0.42-0.24c-0.18-0.1-0.29-0.22-0.33-0.35c-0.04-0.14,0.01-0.31,0.12-0.52l0.83-1.45l-4.54-2.59
						l-1.15,2.02l-0.42-0.24c-0.18-0.11-0.29-0.22-0.32-0.35c-0.03-0.13,0.01-0.3,0.13-0.51l1.26-2.21l0.63,0.36
						c0.29-0.15,0.57-0.34,0.84-0.55c0.27-0.21,0.55-0.48,0.83-0.79c0.28-0.31,0.57-0.69,0.86-1.13c0.3-0.44,0.62-0.96,0.96-1.56
						L728.72,273.02z"/>
					<path class="st2" d="M732.17,283.78l-0.41-0.23c-0.18-0.11-0.29-0.22-0.33-0.36c-0.04-0.13,0.01-0.31,0.12-0.51l3.46-6.07
						l0.94,0.54l-1.53,2.69l3.47,1.98l1.53-2.69l0.95,0.54l-3.79,6.63l-0.41-0.23c-0.2-0.11-0.31-0.23-0.34-0.36
						c-0.04-0.13,0.01-0.3,0.12-0.51l1.67-2.92c-0.14,0.05-0.3,0.07-0.46,0.05c-0.17-0.01-0.34-0.07-0.52-0.18l-2.67-1.52
						L732.17,283.78z"/>
					<path class="st2" d="M742.32,284.92c-0.42-0.24-0.76-0.33-1.04-0.29c-0.28,0.05-0.53,0.28-0.77,0.7l-0.37,0.64
						c-0.11,0.2-0.17,0.39-0.17,0.57c0,0.18,0.04,0.34,0.11,0.48c0.08,0.14,0.17,0.27,0.3,0.38c0.12,0.11,0.25,0.2,0.38,0.27
						l1.84,1.05l1.49-2.62c-0.33-0.26-0.64-0.48-0.93-0.67C742.87,285.24,742.59,285.07,742.32,284.92 M743.11,290.02l-2.81-1.6
						c-0.65-0.37-1.08-0.81-1.3-1.32c-0.22-0.51-0.17-1.04,0.16-1.6l0.43-0.75c0.39-0.67,0.85-1.05,1.4-1.12
						c0.55-0.07,1.14,0.09,1.78,0.47c0.3,0.18,0.59,0.36,0.86,0.55c0.27,0.18,0.57,0.4,0.91,0.67l0.4-0.7
						c0.18-0.31,0.22-0.61,0.14-0.89c-0.08-0.28-0.32-0.53-0.7-0.75l-1.69-0.96c-0.29-0.16-0.44-0.31-0.47-0.45
						c-0.02-0.14,0.01-0.28,0.09-0.41l0.17-0.29l2.35,1.34c0.72,0.41,1.16,0.86,1.33,1.36c0.16,0.49,0.07,1.03-0.26,1.61
						L743.11,290.02z"/>
					<path class="st2" d="M750.07,286.24c-0.51-0.29-0.93-0.42-1.26-0.4c-0.34,0.02-0.63,0.24-0.86,0.65
						c-0.27,0.48-0.33,0.86-0.16,1.16c0.17,0.3,0.49,0.59,0.99,0.87l2.08,1.19l1.3-2.28L750.07,286.24z M748.47,289.39l-3.21,1.86
						l-1.01-0.58l3.33-1.95c-0.29-0.21-0.51-0.43-0.66-0.67c-0.15-0.24-0.24-0.48-0.27-0.72c-0.03-0.24-0.02-0.48,0.05-0.72
						c0.07-0.24,0.16-0.47,0.29-0.68c0.34-0.6,0.81-0.95,1.39-1.05c0.59-0.1,1.3,0.09,2.12,0.57l3.03,1.73l-3.88,6.8l-0.41-0.23
						c-0.18-0.11-0.3-0.23-0.33-0.37c-0.04-0.14,0-0.31,0.12-0.52l1.36-2.37L748.47,289.39z"/>
					<path class="st2" d="M753.83,299.48l0.16-0.29c0.11-0.18,0.23-0.29,0.37-0.32c0.14-0.03,0.33,0.02,0.56,0.15l2.05,1.17
						c0.41,0.23,0.73,0.31,0.98,0.23c0.24-0.08,0.44-0.27,0.6-0.55l0.72-1.25c-0.32-0.14-0.66-0.3-1.02-0.47
						c-0.36-0.17-0.72-0.36-1.1-0.58c-0.68-0.39-1.09-0.85-1.23-1.36c-0.13-0.52,0.01-1.14,0.42-1.86l2.4-4.2l0.95,0.54l-2.39,4.18
						c-0.26,0.45-0.37,0.83-0.35,1.13c0.03,0.3,0.25,0.58,0.69,0.83c0.33,0.18,0.68,0.37,1.06,0.55c0.37,0.18,0.72,0.33,1.02,0.45
						l3.07-5.38l0.95,0.54l-4.24,7.43c-0.14,0.24-0.31,0.45-0.51,0.62c-0.19,0.17-0.42,0.28-0.67,0.35
						c-0.25,0.06-0.53,0.06-0.83,0.01c-0.31-0.06-0.63-0.18-0.99-0.39L753.83,299.48z"/>
					<path class="st2" d="M762.06,299.83c0.25,0.15,0.47,0.24,0.63,0.27c0.17,0.03,0.31,0.01,0.43-0.06
						c0.12-0.07,0.24-0.19,0.35-0.35c0.11-0.17,0.24-0.37,0.38-0.62l2.59-4.54l4.96,2.83l-3.79,6.63l-0.4-0.23
						c-0.19-0.11-0.29-0.23-0.34-0.36c-0.04-0.14,0-0.31,0.12-0.52l3.02-5.28l-3.07-1.75l-2.06,3.6c-0.22,0.39-0.43,0.71-0.64,0.96
						c-0.21,0.25-0.44,0.43-0.68,0.54c-0.25,0.11-0.52,0.13-0.82,0.08c-0.3-0.05-0.66-0.19-1.07-0.43l-0.63-0.36l0.16-0.28
						c0.11-0.18,0.22-0.29,0.34-0.31C761.68,299.65,761.85,299.7,762.06,299.83"/>
					<path class="st2" d="M773.14,298.36l0.95,0.54l-3.31,5.8l6.69-3.88l1.24,0.71l-3.79,6.63l-0.41-0.23
						c-0.18-0.11-0.3-0.22-0.34-0.36c-0.04-0.13,0-0.3,0.12-0.51l2.76-4.83l-5.51,3.22c-0.18,0.11-0.38,0.18-0.61,0.2
						c-0.23,0.02-0.43-0.02-0.63-0.13l-0.4-0.23c-0.36-0.21-0.45-0.47-0.27-0.8L773.14,298.36z"/>
					<path class="st2" d="M783.46,312.05l-1.6,2.8l-0.41-0.23c-0.18-0.1-0.29-0.22-0.33-0.36c-0.04-0.13,0-0.3,0.12-0.51l0.85-1.48
						l-5.41-3.09l3.79-6.63l0.94,0.54l-3.35,5.87l3.58,2.04l3.36-5.87l0.95,0.54l-3.36,5.88L783.46,312.05z"/>
					<path class="st2" d="M788.33,311.17c-0.42-0.24-0.76-0.33-1.04-0.28c-0.28,0.05-0.53,0.28-0.77,0.69l-0.37,0.64
						c-0.12,0.2-0.17,0.39-0.17,0.57c0,0.18,0.03,0.34,0.1,0.48c0.07,0.14,0.17,0.27,0.3,0.38c0.12,0.11,0.25,0.2,0.38,0.27
						l1.85,1.05l1.49-2.62c-0.34-0.26-0.65-0.48-0.94-0.67C788.87,311.49,788.6,311.32,788.33,311.17 M789.12,316.27l-2.81-1.6
						c-0.65-0.37-1.08-0.81-1.3-1.32c-0.21-0.51-0.17-1.04,0.16-1.61l0.43-0.75c0.39-0.68,0.85-1.05,1.4-1.12
						c0.55-0.07,1.14,0.09,1.78,0.47c0.3,0.18,0.59,0.36,0.86,0.55c0.27,0.18,0.57,0.4,0.91,0.67l0.4-0.7
						c0.18-0.31,0.22-0.61,0.14-0.89c-0.08-0.28-0.32-0.53-0.7-0.75l-1.69-0.96c-0.29-0.17-0.45-0.32-0.47-0.45
						c-0.02-0.14,0.01-0.28,0.09-0.41l0.17-0.3l2.35,1.34c0.72,0.41,1.16,0.87,1.32,1.36c0.16,0.49,0.08,1.03-0.25,1.6
						L789.12,316.27z"/>
				</g>
				<g>
					<path class="st2" d="M629.06,167.97l-0.29-0.17c-0.18-0.11-0.29-0.24-0.32-0.38c-0.03-0.14,0.03-0.33,0.17-0.55l1.21-2.02
						c0.24-0.4,0.32-0.73,0.25-0.96c-0.08-0.24-0.26-0.44-0.53-0.61l-1.24-0.74c-0.15,0.32-0.31,0.66-0.49,1.01
						c-0.18,0.35-0.38,0.71-0.6,1.08c-0.4,0.67-0.87,1.08-1.39,1.2c-0.52,0.12-1.14-0.03-1.86-0.46l-4.14-2.48l0.56-0.94l4.13,2.48
						c0.45,0.27,0.82,0.39,1.12,0.37c0.3-0.02,0.58-0.24,0.84-0.67c0.2-0.32,0.39-0.67,0.58-1.04c0.19-0.37,0.35-0.71,0.47-1.01
						l-5.31-3.19l0.56-0.94l7.34,4.4c0.24,0.14,0.44,0.31,0.6,0.52c0.16,0.2,0.27,0.43,0.33,0.67c0.05,0.25,0.05,0.53-0.01,0.83
						c-0.06,0.3-0.2,0.63-0.41,0.98L629.06,167.97z"/>
					<path class="st2" d="M629.58,159.75c0.15-0.25,0.24-0.46,0.28-0.63c0.04-0.16,0.02-0.31-0.05-0.43
						c-0.07-0.12-0.17-0.24-0.34-0.36c-0.16-0.11-0.36-0.24-0.61-0.39l-4.48-2.68l2.94-4.9l6.55,3.93l-0.24,0.39
						c-0.11,0.18-0.23,0.29-0.37,0.33c-0.14,0.04-0.31-0.01-0.52-0.13l-5.22-3.13l-1.82,3.03l3.55,2.13
						c0.38,0.23,0.69,0.45,0.94,0.66c0.25,0.21,0.42,0.44,0.52,0.69c0.1,0.25,0.12,0.52,0.07,0.82c-0.06,0.3-0.21,0.65-0.45,1.06
						l-0.37,0.62l-0.27-0.17c-0.18-0.11-0.28-0.22-0.3-0.35C629.4,160.14,629.46,159.97,629.58,159.75"/>
					<path class="st2" d="M628.36,148.65l0.56-0.94l5.72,3.44l-3.73-6.77l0.74-1.22l6.55,3.93l-0.24,0.4
						c-0.11,0.18-0.23,0.29-0.36,0.33c-0.13,0.04-0.3,0-0.5-0.12l-4.77-2.86l3.1,5.58c0.11,0.19,0.17,0.39,0.18,0.61
						c0.02,0.23-0.03,0.43-0.15,0.62l-0.24,0.39c-0.21,0.36-0.48,0.44-0.8,0.25L628.36,148.65z"/>
					<path class="st2" d="M642.27,138.63l2.76,1.66l-0.24,0.4c-0.11,0.18-0.23,0.29-0.37,0.32c-0.13,0.03-0.3-0.01-0.51-0.14
						l-1.46-0.88l-3.21,5.34l-6.55-3.93l0.55-0.93l5.8,3.48l2.12-3.53l-5.8-3.48l0.56-0.94l5.81,3.49L642.27,138.63z"/>
					<path class="st2" d="M641.5,133.74c-0.25,0.41-0.35,0.76-0.31,1.04c0.04,0.28,0.27,0.54,0.67,0.78l0.64,0.38
						c0.2,0.12,0.39,0.18,0.56,0.18c0.18,0.01,0.34-0.03,0.48-0.1c0.15-0.07,0.27-0.16,0.39-0.29c0.11-0.12,0.2-0.24,0.28-0.37
						l1.09-1.82l-2.58-1.55c-0.26,0.33-0.49,0.63-0.69,0.92C641.83,133.21,641.66,133.48,641.5,133.74 M646.62,133.06l-1.66,2.77
						c-0.39,0.64-0.83,1.07-1.35,1.27c-0.51,0.21-1.04,0.14-1.6-0.19l-0.74-0.44c-0.67-0.4-1.03-0.87-1.09-1.42
						c-0.06-0.55,0.11-1.14,0.51-1.77c0.19-0.3,0.38-0.57,0.56-0.84c0.18-0.27,0.42-0.56,0.69-0.9l-0.69-0.41
						c-0.31-0.18-0.6-0.24-0.88-0.16c-0.28,0.08-0.54,0.31-0.77,0.69l-1,1.66c-0.17,0.29-0.33,0.44-0.46,0.46
						c-0.14,0.02-0.28-0.01-0.41-0.1l-0.29-0.17l1.39-2.32c0.43-0.72,0.89-1.14,1.39-1.3c0.49-0.15,1.03-0.05,1.6,0.29
						L646.62,133.06z"/>
				</g>
			</g>
			<polygon class="st2" points="864.27,194.99 870.19,198.25 871.54,195.8 865.62,192.54 866.15,191.58 872.84,195.26 
				868.56,203.04 861.87,199.35 862.4,198.39 868.32,201.65 869.66,199.21 863.74,195.95 			"/>
			<path class="st2" d="M916.49,126.73l-0.29-0.16c-0.19-0.1-0.3-0.23-0.33-0.37c-0.04-0.14,0.01-0.33,0.14-0.56l1.14-2.07
				c0.23-0.41,0.3-0.74,0.21-0.98c-0.08-0.24-0.27-0.43-0.55-0.59l-1.26-0.69c-0.14,0.33-0.29,0.67-0.46,1.02s-0.35,0.73-0.56,1.11
				c-0.38,0.69-0.83,1.1-1.34,1.25c-0.52,0.14-1.14,0.01-1.87-0.39l-4.23-2.33l0.53-0.96l4.22,2.32c0.45,0.25,0.83,0.36,1.13,0.33
				c0.3-0.03,0.57-0.26,0.81-0.7c0.18-0.33,0.36-0.69,0.54-1.07c0.17-0.38,0.32-0.72,0.44-1.02l-5.42-2.99l0.53-0.96l7.49,4.12
				c0.24,0.13,0.45,0.3,0.62,0.49c0.17,0.2,0.29,0.42,0.36,0.67c0.07,0.24,0.07,0.52,0.02,0.82c-0.05,0.3-0.17,0.64-0.37,0.99
				L916.49,126.73z"/>
			<path class="st2" d="M916.71,118.49c0.14-0.26,0.22-0.47,0.25-0.63c0.03-0.17,0.01-0.31-0.06-0.43
				c-0.07-0.12-0.19-0.24-0.35-0.34c-0.17-0.11-0.37-0.23-0.62-0.37l-4.57-2.52l2.76-5l6.69,3.68l-0.22,0.4
				c-0.1,0.19-0.22,0.3-0.36,0.34c-0.14,0.04-0.31,0.01-0.52-0.11l-5.33-2.93l-1.71,3.1l3.63,2c0.39,0.21,0.71,0.42,0.97,0.63
				c0.26,0.21,0.44,0.43,0.55,0.67c0.1,0.24,0.14,0.52,0.09,0.82c-0.05,0.3-0.18,0.66-0.41,1.07l-0.35,0.63l-0.28-0.15
				c-0.19-0.1-0.29-0.21-0.32-0.34C916.54,118.88,916.59,118.71,916.71,118.49"/>
			<path class="st2" d="M915.07,107.44l0.53-0.96l5.85,3.22l-3.98-6.62l0.69-1.25l6.69,3.68l-0.23,0.41
				c-0.1,0.18-0.22,0.3-0.35,0.34c-0.13,0.05-0.3,0.01-0.51-0.11l-4.86-2.68l3.3,5.46c0.11,0.18,0.18,0.38,0.21,0.61
				c0.02,0.23-0.02,0.43-0.12,0.63l-0.22,0.4c-0.2,0.36-0.46,0.46-0.79,0.28L915.07,107.44z"/>
			<path class="st2" d="M928.6,96.91l2.83,1.56l-0.23,0.41c-0.1,0.19-0.22,0.3-0.35,0.34c-0.13,0.04-0.3,0-0.52-0.12l-1.49-0.82
				l-3,5.46l-6.69-3.68l0.52-0.95l5.92,3.26l1.99-3.61l-5.92-3.26l0.53-0.96l5.93,3.27L928.6,96.91z"/>
			<path class="st2" d="M927.65,92.05c-0.23,0.42-0.32,0.77-0.27,1.05c0.05,0.28,0.29,0.53,0.7,0.76l0.65,0.35
				c0.21,0.11,0.4,0.17,0.57,0.16c0.18,0,0.34-0.04,0.48-0.12c0.14-0.07,0.27-0.18,0.37-0.3c0.11-0.12,0.2-0.26,0.27-0.39l1.02-1.86
				l-2.64-1.45c-0.25,0.34-0.46,0.65-0.65,0.94C927.96,91.5,927.79,91.78,927.65,92.05 M932.74,91.18l-1.56,2.83
				c-0.36,0.66-0.79,1.1-1.3,1.32c-0.51,0.22-1.04,0.18-1.61-0.13l-0.76-0.42c-0.68-0.38-1.06-0.84-1.14-1.38
				c-0.08-0.55,0.07-1.14,0.45-1.79c0.18-0.31,0.36-0.59,0.53-0.86c0.18-0.28,0.4-0.58,0.66-0.92l-0.7-0.39
				c-0.31-0.17-0.61-0.21-0.89-0.12c-0.28,0.09-0.53,0.33-0.74,0.72l-0.94,1.7c-0.16,0.29-0.31,0.45-0.45,0.48
				c-0.14,0.02-0.28-0.01-0.42-0.08l-0.29-0.16l1.3-2.37c0.4-0.73,0.85-1.18,1.34-1.35c0.49-0.17,1.02-0.09,1.61,0.23L932.74,91.18z
				"/>
			<path class="st2" d="M926.61,80.84l3.42-6.21l9.08,5l-0.22,0.4c-0.1,0.19-0.22,0.3-0.35,0.35c-0.14,0.04-0.3,0.01-0.51-0.11
				l-7.76-4.27l-2.38,4.31l8.32,4.58l-0.23,0.41c-0.1,0.18-0.22,0.3-0.35,0.34c-0.13,0.04-0.3,0-0.5-0.11L926.61,80.84z"/>
			<path class="st2" d="M936.81,74.97l1.59-2.89c0.08-0.15,0.11-0.27,0.09-0.34c-0.03-0.07-0.11-0.15-0.26-0.23l-0.66-0.36
				c-0.41-0.22-0.82-0.26-1.22-0.12c-0.4,0.15-0.75,0.49-1.04,1.03c-0.27,0.49-0.37,0.95-0.28,1.37c0.08,0.42,0.34,0.75,0.75,0.97
				L936.81,74.97z M941.95,72.64l0.29,0.16c0.14,0.08,0.24,0.18,0.28,0.3c0.05,0.12-0.01,0.33-0.17,0.62l-1.1,1.99
				c-0.19,0.34-0.41,0.62-0.66,0.85c-0.25,0.23-0.53,0.39-0.82,0.49c-0.29,0.1-0.6,0.13-0.92,0.1c-0.32-0.04-0.64-0.14-0.96-0.32
				l-2.39-1.31c-0.42-0.23-0.74-0.5-0.97-0.8c-0.23-0.3-0.37-0.63-0.43-0.97c-0.06-0.34-0.05-0.68,0.03-1.04
				c0.08-0.35,0.22-0.71,0.41-1.06c0.2-0.37,0.44-0.69,0.71-0.96c0.27-0.27,0.56-0.47,0.86-0.61c0.31-0.14,0.63-0.2,0.97-0.18
				c0.33,0.02,0.67,0.12,1.01,0.3l1,0.55c0.26,0.14,0.42,0.31,0.48,0.51c0.07,0.2,0.01,0.45-0.16,0.76l-1.86,3.38l0.85,0.47
				c0.43,0.24,0.83,0.29,1.2,0.16c0.37-0.13,0.66-0.38,0.86-0.74L941.95,72.64z"/>
			<path class="st2" d="M945.46,66.25l0.25,0.14c0.14,0.08,0.24,0.18,0.3,0.31c0.06,0.13,0.01,0.34-0.15,0.64l-0.88,1.6
				c-0.2,0.36-0.43,0.66-0.69,0.9c-0.27,0.24-0.55,0.42-0.87,0.53c-0.31,0.11-0.63,0.15-0.97,0.12c-0.34-0.03-0.67-0.14-1.02-0.33
				l-2.25-1.24c-0.34-0.19-0.61-0.42-0.83-0.69c-0.21-0.27-0.35-0.56-0.43-0.89c-0.08-0.32-0.08-0.66-0.03-1.02
				c0.06-0.36,0.19-0.72,0.39-1.07l1.22-2.22l0.23,0.13c0.15,0.08,0.26,0.19,0.33,0.32c0.07,0.14,0.03,0.34-0.12,0.61l-0.88,1.6
				c-0.27,0.48-0.34,0.91-0.24,1.29c0.11,0.38,0.4,0.71,0.88,0.98l2.23,1.23c0.43,0.24,0.85,0.3,1.25,0.2s0.74-0.39,1-0.87
				L945.46,66.25z"/>
			<path class="st2" d="M941.99,60.41l-1.26,2.3l-0.79-0.43l3.07-5.56l0.23,0.12c0.2,0.11,0.32,0.22,0.37,0.33
				c0.05,0.11,0.01,0.3-0.14,0.56l-0.95,1.73l5.9,3.25l-0.23,0.41c-0.1,0.19-0.22,0.3-0.35,0.34c-0.14,0.04-0.31,0-0.52-0.11
				L941.99,60.41z"/>
			<path class="st2" d="M946.98,56.5l1.59-2.89c0.08-0.15,0.11-0.27,0.09-0.34c-0.03-0.07-0.11-0.15-0.26-0.23l-0.66-0.36
				c-0.41-0.23-0.82-0.27-1.22-0.11c-0.4,0.15-0.75,0.49-1.04,1.02c-0.27,0.49-0.37,0.95-0.28,1.37c0.08,0.42,0.33,0.75,0.75,0.97
				L946.98,56.5z M952.11,54.17l0.29,0.16c0.14,0.08,0.24,0.18,0.29,0.3c0.04,0.12-0.01,0.33-0.17,0.62l-1.1,1.99
				c-0.18,0.34-0.41,0.62-0.66,0.85c-0.25,0.23-0.53,0.39-0.82,0.49c-0.29,0.1-0.6,0.13-0.92,0.1c-0.31-0.03-0.64-0.14-0.96-0.32
				l-2.39-1.31c-0.42-0.23-0.75-0.5-0.97-0.8c-0.23-0.3-0.37-0.63-0.43-0.97c-0.06-0.34-0.05-0.68,0.04-1.04
				c0.08-0.35,0.22-0.71,0.41-1.06c0.2-0.37,0.44-0.69,0.71-0.96c0.27-0.27,0.56-0.47,0.86-0.61c0.31-0.14,0.63-0.2,0.97-0.18
				c0.34,0.02,0.67,0.12,1.01,0.3l1,0.55c0.26,0.14,0.42,0.32,0.48,0.51c0.07,0.2,0.01,0.45-0.16,0.76l-1.86,3.38l0.85,0.47
				c0.43,0.24,0.83,0.29,1.2,0.16c0.37-0.13,0.66-0.38,0.86-0.74L952.11,54.17z"/>
			<path class="st2" d="M953.1,52.37c0.14-0.26,0.23-0.47,0.25-0.63c0.03-0.17,0-0.31-0.07-0.43c-0.07-0.12-0.19-0.24-0.35-0.34
				c-0.16-0.11-0.37-0.23-0.62-0.37l-4.57-2.52l2.75-5l6.69,3.68l-0.22,0.4c-0.1,0.19-0.22,0.3-0.36,0.34
				c-0.14,0.04-0.31,0.01-0.52-0.11l-5.33-2.93l-1.71,3.1l3.63,2c0.39,0.21,0.71,0.42,0.97,0.63c0.26,0.21,0.44,0.43,0.55,0.67
				c0.11,0.24,0.14,0.52,0.09,0.82c-0.05,0.3-0.18,0.66-0.41,1.07l-0.35,0.63l-0.28-0.15c-0.18-0.1-0.29-0.21-0.31-0.34
				C952.93,52.76,952.98,52.59,953.1,52.37"/>
			<path class="st2" d="M953.33,39.8c-0.28,0.51-0.41,0.94-0.38,1.27c0.03,0.34,0.25,0.62,0.66,0.85c0.48,0.27,0.87,0.31,1.17,0.14
				c0.3-0.17,0.58-0.5,0.85-0.99l1.16-2.1l-2.3-1.26L953.33,39.8z M956.51,41.35l1.91,3.17l-0.56,1.02l-2-3.3
				c-0.21,0.3-0.43,0.53-0.67,0.67c-0.23,0.15-0.47,0.24-0.71,0.28c-0.24,0.04-0.48,0.02-0.72-0.04c-0.24-0.06-0.47-0.15-0.69-0.27
				c-0.6-0.34-0.96-0.8-1.07-1.38c-0.1-0.58,0.08-1.29,0.54-2.13l1.68-3.06l6.86,3.77l-0.23,0.42c-0.1,0.18-0.22,0.3-0.36,0.34
				c-0.14,0.04-0.31,0-0.53-0.12l-2.4-1.32L956.51,41.35z"/>
			<path class="st2" d="M829.36,258.41l6.69,3.68l-0.23,0.41c-0.11,0.2-0.23,0.31-0.37,0.35c-0.14,0.04-0.31,0-0.53-0.11l-5.32-2.93
				l-1.73,3.15l5.9,3.25l-0.22,0.4c-0.11,0.19-0.23,0.31-0.37,0.35c-0.14,0.04-0.31,0-0.52-0.11l-6.11-3.36L829.36,258.41z"/>
			<path class="st2" d="M836.25,258.82l0.88-1.6c0.53-0.95,0.32-1.69-0.63-2.21l-1.82-1c-0.47-0.26-0.89-0.34-1.26-0.24
				c-0.37,0.1-0.69,0.39-0.96,0.88l-0.88,1.6L836.25,258.82z M830.26,256.78l1.41-2.56c0.88-1.59,2.05-1.99,3.53-1.18l1.83,1
				c0.76,0.42,1.2,0.93,1.33,1.54c0.12,0.6-0.03,1.29-0.45,2.06l-0.88,1.6l2.82,1.55l-0.23,0.41c-0.11,0.2-0.23,0.31-0.36,0.35
				c-0.14,0.04-0.31-0.01-0.52-0.12L830.26,256.78z"/>
			<path class="st2" d="M838.64,247.29c-0.25-0.14-0.51-0.24-0.77-0.3c-0.26-0.06-0.51-0.07-0.75-0.02
				c-0.24,0.05-0.46,0.16-0.68,0.32c-0.22,0.17-0.41,0.4-0.58,0.71c-0.3,0.53-0.37,1.04-0.23,1.51c0.14,0.47,0.51,0.87,1.12,1.21
				l1.79,0.99c0.6,0.33,1.14,0.43,1.62,0.31c0.48-0.12,0.87-0.46,1.17-1.01c0.3-0.54,0.38-1.05,0.24-1.51
				c-0.14-0.47-0.52-0.87-1.15-1.21L838.64,247.29z M835.1,247.57c0.47-0.86,1.05-1.42,1.71-1.64c0.67-0.23,1.45-0.1,2.36,0.41
				l1.8,0.99c0.9,0.5,1.44,1.09,1.62,1.77c0.18,0.68,0.02,1.47-0.46,2.35c-0.47,0.86-1.05,1.4-1.72,1.63
				c-0.67,0.23-1.46,0.1-2.38-0.4l-1.8-0.99c-0.9-0.49-1.43-1.09-1.59-1.78C834.48,249.2,834.64,248.43,835.1,247.57"/>
			<path class="st2" d="M841.02,244.25l1.59-2.89c0.08-0.15,0.12-0.27,0.09-0.34c-0.02-0.07-0.11-0.15-0.26-0.23l-0.66-0.36
				c-0.41-0.23-0.82-0.27-1.22-0.12c-0.4,0.15-0.75,0.49-1.04,1.02c-0.27,0.5-0.37,0.96-0.28,1.38c0.08,0.42,0.33,0.75,0.75,0.97
				L841.02,244.25z M846.16,241.91l0.29,0.16c0.14,0.08,0.24,0.18,0.29,0.3c0.04,0.12-0.01,0.32-0.17,0.62l-1.1,1.99
				c-0.19,0.34-0.41,0.62-0.66,0.85c-0.25,0.23-0.52,0.39-0.82,0.49c-0.29,0.1-0.6,0.13-0.92,0.09c-0.32-0.03-0.64-0.14-0.97-0.32
				l-2.39-1.31c-0.42-0.23-0.74-0.5-0.97-0.8c-0.23-0.3-0.37-0.63-0.43-0.96c-0.06-0.34-0.05-0.68,0.03-1.04
				c0.08-0.36,0.22-0.71,0.41-1.06c0.2-0.37,0.44-0.69,0.71-0.96c0.27-0.27,0.56-0.47,0.87-0.61c0.31-0.14,0.63-0.19,0.97-0.18
				c0.33,0.01,0.67,0.11,1.01,0.3l1,0.55c0.26,0.14,0.42,0.31,0.49,0.51s0.01,0.45-0.16,0.76l-1.86,3.38l0.85,0.47
				c0.43,0.24,0.83,0.29,1.2,0.16c0.37-0.13,0.66-0.37,0.86-0.74L846.16,241.91z"/>
			<path class="st2" d="M841.9,235.23c0.16-0.3,0.35-0.59,0.56-0.87c0.21-0.28,0.45-0.5,0.72-0.67c0.27-0.17,0.56-0.26,0.88-0.29
				c0.32-0.03,0.67,0.07,1.03,0.28c0.39,0.23,0.66,0.48,0.81,0.76c0.15,0.28,0.2,0.66,0.15,1.14c0.41-0.4,0.81-0.61,1.21-0.64
				c0.4-0.03,0.77,0.05,1.13,0.25c0.42,0.23,0.73,0.49,0.94,0.76c0.2,0.27,0.32,0.57,0.34,0.9c0.02,0.33-0.04,0.69-0.19,1.07
				c-0.14,0.38-0.35,0.81-0.62,1.27c-0.06,0.11-0.14,0.23-0.23,0.38c-0.1,0.15-0.21,0.3-0.32,0.47c-0.11,0.16-0.23,0.33-0.34,0.49
				c-0.12,0.16-0.23,0.31-0.33,0.44l-0.36-0.19c-0.29-0.16-0.33-0.4-0.1-0.7c0.16-0.22,0.31-0.41,0.44-0.6
				c0.13-0.18,0.28-0.43,0.45-0.74c0.34-0.62,0.52-1.15,0.52-1.57c0-0.42-0.24-0.76-0.72-1.03c-0.47-0.26-0.88-0.28-1.23-0.06
				c-0.35,0.22-0.71,0.68-1.09,1.36l-0.64,1.16c-0.03,0.06-0.06,0.08-0.09,0.08c-0.03,0-0.08-0.02-0.14-0.06l-0.59-0.33l0.7-1.26
				c0.34-0.62,0.5-1.11,0.47-1.47c-0.02-0.36-0.27-0.68-0.75-0.94c-0.35-0.19-0.67-0.21-0.97-0.05c-0.3,0.16-0.6,0.52-0.91,1.08
				c-0.11,0.21-0.22,0.4-0.29,0.57c-0.08,0.16-0.15,0.32-0.2,0.47c-0.06,0.15-0.11,0.3-0.15,0.45c-0.04,0.15-0.09,0.31-0.14,0.47
				l-0.72-0.4c0.04-0.19,0.09-0.38,0.14-0.55c0.05-0.17,0.1-0.33,0.16-0.48c0.05-0.16,0.12-0.31,0.19-0.47
				C841.71,235.57,841.8,235.41,841.9,235.23"/>
			<path class="st2" d="M847.59,227.17l-1.34,2.43l0.51,0.28c0.39,0.21,0.79,0.44,1.2,0.69c0.41,0.25,0.8,0.51,1.17,0.79
				c0.37,0.28,0.71,0.58,1.03,0.9c0.31,0.32,0.56,0.66,0.75,1l1.8-3.28L847.59,227.17z M844.94,230.11l2.39-4.34l5.92,3.26
				l0.33-0.61l2.8,1.54l-0.23,0.42c-0.1,0.19-0.22,0.3-0.35,0.34c-0.14,0.04-0.3,0-0.52-0.11l-1.46-0.8l-2.52,4.58l2.03,1.12
				l-0.23,0.43c-0.1,0.18-0.22,0.3-0.35,0.33c-0.13,0.03-0.3-0.01-0.51-0.12l-2.23-1.23l0.35-0.63c-0.16-0.29-0.35-0.56-0.56-0.83
				c-0.22-0.26-0.49-0.54-0.81-0.81c-0.32-0.28-0.7-0.56-1.14-0.85c-0.45-0.29-0.97-0.61-1.58-0.94L844.94,230.11z"/>
			<path class="st2" d="M849.99,217.15c-0.28,0.51-0.37,0.95-0.27,1.33c0.11,0.38,0.37,0.68,0.8,0.91l0.7,0.39
				c0.47,0.26,0.89,0.33,1.27,0.2c0.38-0.12,0.7-0.43,0.97-0.92l1.42-2.57l-3.48-1.91L849.99,217.15z M854.33,219.37l3,4.06
				l-0.56,1.02l-3.07-4.19c-0.24,0.29-0.48,0.51-0.72,0.65c-0.25,0.14-0.49,0.22-0.74,0.24c-0.25,0.02-0.49,0-0.73-0.07
				c-0.24-0.07-0.47-0.17-0.69-0.29l-1.02-0.56c-0.57-0.31-0.92-0.77-1.07-1.37c-0.14-0.61,0.01-1.32,0.47-2.15l1.94-3.52l9.08,4.99
				l-0.22,0.4c-0.2,0.36-0.49,0.44-0.87,0.23l-3.45-1.89L854.33,219.37z"/>
			<path class="st2" d="M858.55,213.06c0.05-0.54,0-1.03-0.17-1.46c-0.16-0.44-0.4-0.84-0.71-1.22c-0.43-0.51-0.66-0.97-0.7-1.38
				c-0.04-0.42,0.06-0.84,0.3-1.28l0.3-0.54l0.21,0.11c0.18,0.1,0.31,0.21,0.37,0.33c0.07,0.12,0.03,0.3-0.1,0.55
				c-0.05,0.09-0.09,0.18-0.12,0.28c-0.03,0.1-0.03,0.21-0.01,0.34c0.02,0.13,0.07,0.27,0.16,0.44c0.08,0.16,0.21,0.35,0.38,0.54
				c0.24,0.29,0.45,0.61,0.62,0.94c0.17,0.34,0.28,0.74,0.34,1.2l4.76-0.92l-0.6,1.08L858.55,213.06z M855.08,211.68l6.69,3.68
				l-0.24,0.43c-0.1,0.18-0.22,0.29-0.35,0.32s-0.31-0.01-0.52-0.12l-6.11-3.36L855.08,211.68z"/>
			<path class="st2" d="M867.57,210.85l-0.29-0.16c-0.19-0.1-0.3-0.22-0.33-0.36c-0.04-0.14,0.01-0.33,0.14-0.57l1.14-2.06
				c0.23-0.41,0.3-0.74,0.21-0.97c-0.09-0.24-0.27-0.44-0.56-0.59l-1.26-0.7c-0.14,0.33-0.29,0.67-0.45,1.03
				c-0.17,0.36-0.36,0.73-0.56,1.11c-0.38,0.69-0.83,1.1-1.34,1.25c-0.52,0.14-1.14,0.01-1.87-0.39l-4.23-2.33l0.53-0.96l4.22,2.32
				c0.45,0.25,0.83,0.36,1.13,0.33c0.3-0.03,0.57-0.26,0.81-0.7c0.18-0.33,0.37-0.69,0.54-1.07c0.18-0.38,0.32-0.72,0.44-1.03
				l-5.42-2.98l0.53-0.96l7.49,4.12c0.24,0.14,0.45,0.3,0.62,0.49c0.17,0.2,0.29,0.42,0.36,0.66c0.06,0.25,0.07,0.52,0.02,0.82
				c-0.05,0.31-0.17,0.64-0.37,0.99L867.57,210.85z"/>
			<g>
				<path class="st2" d="M651.9,116.4c-0.25,0.41-0.35,0.76-0.3,1.04c0.04,0.28,0.27,0.54,0.67,0.78l0.64,0.38
					c0.2,0.12,0.39,0.18,0.56,0.18c0.18,0.01,0.34-0.03,0.49-0.1c0.14-0.07,0.27-0.16,0.39-0.29c0.11-0.12,0.2-0.25,0.28-0.37
					l1.09-1.82l-2.58-1.55c-0.26,0.33-0.49,0.63-0.69,0.92C652.24,115.87,652.06,116.14,651.9,116.4 M657.02,115.72l-1.66,2.77
					c-0.39,0.64-0.83,1.06-1.35,1.27c-0.51,0.21-1.04,0.14-1.6-0.19l-0.74-0.44c-0.67-0.4-1.03-0.87-1.09-1.42
					c-0.06-0.55,0.11-1.14,0.51-1.77c0.19-0.3,0.38-0.57,0.56-0.84c0.18-0.27,0.41-0.56,0.69-0.89l-0.69-0.41
					c-0.31-0.18-0.6-0.24-0.89-0.16c-0.28,0.08-0.54,0.3-0.77,0.69l-1,1.67c-0.17,0.28-0.33,0.43-0.46,0.46
					c-0.14,0.02-0.27-0.01-0.41-0.09l-0.29-0.17l1.39-2.32c0.43-0.71,0.89-1.14,1.39-1.3c0.49-0.15,1.03-0.05,1.6,0.29
					L657.02,115.72z"/>
				<path class="st2" d="M657.61,108.02l-3.59-2.15l0.56-0.93l6.55,3.93l-0.24,0.4c-0.11,0.18-0.23,0.29-0.37,0.32
					c-0.14,0.03-0.31-0.02-0.51-0.14l-1.64-0.99l-1.33,2.21c-0.44,0.73-0.92,1.17-1.43,1.31c-0.52,0.15-1.1,0.03-1.75-0.36
					l-2.41-1.45l0.56-0.93l2.39,1.43c0.43,0.26,0.8,0.33,1.11,0.23c0.31-0.1,0.58-0.34,0.8-0.72L657.61,108.02z"/>
				<path class="st2" d="M659.87,103.11c-0.25,0.42-0.35,0.76-0.31,1.04c0.04,0.28,0.27,0.54,0.67,0.78l0.64,0.38
					c0.2,0.12,0.39,0.18,0.56,0.18c0.18,0,0.34-0.03,0.49-0.1c0.14-0.07,0.27-0.16,0.39-0.29c0.11-0.12,0.2-0.24,0.28-0.37
					l1.09-1.82l-2.59-1.55c-0.26,0.33-0.49,0.63-0.69,0.92C660.21,102.58,660.03,102.85,659.87,103.11 M664.99,102.43l-1.66,2.77
					c-0.38,0.64-0.83,1.06-1.35,1.27c-0.51,0.21-1.04,0.14-1.6-0.19l-0.74-0.44c-0.67-0.4-1.03-0.87-1.09-1.42
					c-0.06-0.55,0.11-1.14,0.51-1.77c0.19-0.3,0.38-0.57,0.56-0.84c0.18-0.27,0.42-0.56,0.69-0.9l-0.69-0.41
					c-0.31-0.18-0.6-0.24-0.88-0.16c-0.28,0.08-0.54,0.3-0.77,0.69l-1,1.67c-0.17,0.28-0.33,0.44-0.46,0.46
					c-0.14,0.02-0.28-0.01-0.41-0.1l-0.29-0.17l1.39-2.32c0.43-0.71,0.89-1.14,1.39-1.3c0.49-0.15,1.03-0.05,1.6,0.29L664.99,102.43
					z"/>
				<path class="st2" d="M661.16,95.73l-1.35,2.25l-0.77-0.46l3.27-5.45l0.23,0.14c0.2,0.11,0.31,0.23,0.36,0.34
					c0.04,0.11-0.01,0.3-0.16,0.55l-1.01,1.69l5.78,3.46l-0.24,0.4c-0.11,0.18-0.23,0.29-0.37,0.33c-0.14,0.04-0.31-0.01-0.52-0.13
					L661.16,95.73z"/>
				<path class="st2" d="M672.12,96.21l-0.29-0.17c-0.18-0.11-0.29-0.24-0.32-0.38c-0.03-0.14,0.03-0.33,0.16-0.55l1.21-2.02
					c0.24-0.4,0.32-0.73,0.25-0.96c-0.08-0.24-0.26-0.44-0.53-0.61l-1.24-0.74c-0.15,0.32-0.31,0.66-0.49,1.01
					c-0.18,0.35-0.38,0.71-0.6,1.08c-0.4,0.67-0.87,1.07-1.39,1.2c-0.52,0.12-1.14-0.03-1.86-0.46l-4.14-2.48l0.56-0.94l4.13,2.48
					c0.44,0.27,0.82,0.39,1.12,0.37c0.3-0.02,0.58-0.24,0.84-0.67c0.19-0.32,0.39-0.67,0.58-1.05c0.19-0.37,0.35-0.7,0.48-1.01
					l-5.31-3.19l0.57-0.94l7.34,4.4c0.24,0.14,0.44,0.31,0.61,0.52c0.17,0.2,0.28,0.43,0.33,0.68c0.05,0.25,0.05,0.53-0.01,0.83
					c-0.06,0.3-0.2,0.63-0.41,0.98L672.12,96.21z"/>
				<path class="st2" d="M672.74,86.79l0.94-1.57c0.56-0.94,0.38-1.68-0.54-2.24l-1.78-1.07c-0.46-0.27-0.88-0.37-1.25-0.29
					c-0.37,0.08-0.7,0.37-1,0.85l-0.94,1.57L672.74,86.79z M666.83,84.53l1.51-2.51c0.94-1.56,2.13-1.91,3.57-1.05l1.79,1.07
					c0.75,0.44,1.17,0.98,1.27,1.58c0.1,0.61-0.08,1.29-0.53,2.05l-0.94,1.57l2.76,1.66l-0.24,0.4c-0.11,0.19-0.24,0.3-0.38,0.33
					c-0.14,0.03-0.31-0.02-0.52-0.14L666.83,84.53z"/>
				<path class="st2" d="M672.63,76.61c-0.3,0.5-0.44,0.92-0.43,1.26c0.02,0.34,0.23,0.63,0.64,0.87c0.47,0.28,0.86,0.35,1.16,0.19
					c0.3-0.16,0.6-0.48,0.89-0.97l1.23-2.06l-2.25-1.35L672.63,76.61z M675.75,78.27l1.8,3.24l-0.6,1l-1.88-3.37
					c-0.22,0.29-0.45,0.51-0.69,0.65c-0.24,0.14-0.48,0.23-0.72,0.26c-0.24,0.03-0.48,0.01-0.72-0.07c-0.23-0.07-0.46-0.17-0.67-0.3
					c-0.59-0.35-0.93-0.83-1.01-1.42c-0.08-0.59,0.12-1.29,0.61-2.11l1.8-3l6.71,4.03l-0.24,0.4c-0.11,0.18-0.23,0.29-0.37,0.33
					c-0.14,0.04-0.32-0.01-0.52-0.14l-2.34-1.4L675.75,78.27z"/>
				<path class="st2" d="M681.76,74.48l-0.24,0.41c-0.11,0.18-0.23,0.29-0.36,0.32c-0.13,0.03-0.3-0.01-0.51-0.14l-5.99-3.59
					l0.56-0.93l2.65,1.59l2.05-3.42l-2.65-1.59l0.56-0.94l6.55,3.93l-0.24,0.4c-0.11,0.19-0.24,0.3-0.37,0.33
					c-0.14,0.04-0.3-0.01-0.51-0.13l-2.89-1.73c0.04,0.14,0.06,0.3,0.04,0.46c-0.02,0.16-0.08,0.33-0.19,0.52l-1.58,2.64
					L681.76,74.48z"/>
				<path class="st2" d="M683.12,64.36c-0.25,0.41-0.35,0.76-0.3,1.04c0.04,0.28,0.27,0.54,0.67,0.78l0.64,0.38
					c0.2,0.12,0.39,0.18,0.56,0.18c0.18,0,0.34-0.03,0.49-0.1c0.14-0.07,0.27-0.16,0.39-0.29c0.11-0.12,0.2-0.25,0.28-0.37
					l1.09-1.82l-2.59-1.55c-0.26,0.33-0.49,0.63-0.69,0.92C683.46,63.83,683.28,64.1,683.12,64.36 M688.24,63.68l-1.66,2.77
					c-0.39,0.64-0.83,1.07-1.35,1.27c-0.51,0.2-1.04,0.14-1.6-0.19l-0.74-0.45c-0.67-0.4-1.03-0.87-1.09-1.42
					c-0.06-0.55,0.11-1.14,0.51-1.77c0.19-0.3,0.38-0.58,0.56-0.84c0.18-0.27,0.41-0.56,0.69-0.89l-0.69-0.41
					c-0.31-0.18-0.6-0.24-0.89-0.16c-0.28,0.08-0.54,0.31-0.77,0.69l-1,1.67c-0.17,0.28-0.33,0.43-0.46,0.46
					c-0.14,0.02-0.28-0.01-0.42-0.09l-0.29-0.17l1.39-2.32c0.43-0.71,0.89-1.14,1.39-1.29c0.49-0.15,1.03-0.06,1.6,0.29
					L688.24,63.68z"/>
				<polygon class="st2" points="649.35,128.5 646.67,122.85 640.5,123.13 641.12,122.09 646.18,121.86 644.01,117.28 
					644.64,116.22 647.3,121.79 653.55,121.51 652.91,122.58 647.8,122.83 649.99,127.44 				"/>
			</g>
			<g>
				<path class="st2" d="M530.45,142.23l-0.32-0.19c-0.2-0.12-0.32-0.26-0.35-0.42c-0.03-0.16,0.03-0.36,0.18-0.62l1.35-2.25
					c0.27-0.45,0.36-0.81,0.28-1.07c-0.09-0.27-0.28-0.49-0.59-0.68l-1.38-0.82c-0.17,0.35-0.35,0.73-0.54,1.12
					c-0.2,0.39-0.42,0.79-0.67,1.21c-0.45,0.75-0.97,1.19-1.54,1.33c-0.58,0.14-1.27-0.04-2.06-0.51l-4.6-2.76l0.63-1.04l4.59,2.75
					c0.5,0.29,0.91,0.43,1.24,0.41c0.34-0.02,0.65-0.27,0.93-0.74c0.21-0.36,0.43-0.75,0.64-1.16c0.21-0.42,0.39-0.79,0.53-1.12
					l-5.9-3.54l0.62-1.04l8.15,4.88c0.26,0.16,0.49,0.35,0.67,0.57c0.18,0.22,0.31,0.48,0.37,0.75c0.06,0.28,0.05,0.58-0.02,0.92
					c-0.07,0.33-0.22,0.7-0.45,1.08L530.45,142.23z"/>
				<path class="st2" d="M531.04,133.1c0.17-0.28,0.27-0.51,0.31-0.7c0.04-0.18,0.02-0.34-0.05-0.48c-0.07-0.14-0.2-0.27-0.38-0.4
					c-0.18-0.12-0.4-0.27-0.67-0.43l-4.97-2.98l3.26-5.44l7.27,4.36l-0.26,0.43c-0.12,0.2-0.26,0.33-0.41,0.37
					c-0.15,0.04-0.34-0.01-0.57-0.15l-5.8-3.48l-2.02,3.37l3.95,2.37c0.42,0.25,0.77,0.5,1.05,0.74c0.27,0.24,0.47,0.49,0.58,0.77
					c0.11,0.27,0.13,0.58,0.07,0.91c-0.06,0.34-0.23,0.73-0.5,1.17l-0.41,0.69l-0.31-0.18c-0.2-0.12-0.31-0.25-0.33-0.39
					C530.84,133.53,530.9,133.34,531.04,133.1"/>
				<path class="st2" d="M529.68,120.77l0.63-1.04l6.36,3.81l-4.14-7.51l0.82-1.36l7.27,4.36l-0.27,0.45
					c-0.12,0.2-0.26,0.33-0.4,0.37c-0.15,0.04-0.33,0-0.57-0.14l-5.29-3.17l3.44,6.2c0.12,0.2,0.18,0.43,0.2,0.67
					c0.02,0.25-0.04,0.48-0.16,0.69l-0.26,0.44c-0.24,0.39-0.53,0.49-0.89,0.28L529.68,120.77z"/>
				<path class="st2" d="M545.12,109.65l3.07,1.84l-0.27,0.45c-0.12,0.2-0.26,0.32-0.4,0.36c-0.15,0.04-0.34-0.01-0.57-0.15
					l-1.62-0.97l-3.56,5.93l-7.28-4.36l0.62-1.03l6.44,3.86l2.35-3.92l-6.44-3.86l0.62-1.04l6.45,3.87L545.12,109.65z"/>
				<path class="st2" d="M544.27,104.23c-0.27,0.46-0.39,0.84-0.34,1.15c0.05,0.31,0.3,0.6,0.75,0.87l0.71,0.42
					c0.22,0.14,0.43,0.2,0.62,0.21c0.2,0.01,0.37-0.03,0.54-0.11c0.16-0.08,0.3-0.18,0.43-0.32s0.23-0.28,0.31-0.41l1.21-2.01
					l-2.87-1.71c-0.29,0.36-0.55,0.7-0.77,1.02C544.64,103.63,544.44,103.94,544.27,104.23 M549.96,103.48l-1.85,3.06
					c-0.43,0.71-0.93,1.18-1.49,1.4c-0.57,0.23-1.16,0.16-1.78-0.21l-0.82-0.49c-0.74-0.44-1.15-0.96-1.21-1.57
					c-0.07-0.61,0.12-1.26,0.56-1.96c0.21-0.33,0.42-0.64,0.63-0.93c0.2-0.29,0.46-0.62,0.77-0.99l-0.76-0.45
					c-0.34-0.21-0.67-0.27-0.98-0.18c-0.32,0.09-0.6,0.34-0.85,0.76l-1.11,1.84c-0.19,0.31-0.36,0.48-0.51,0.51
					c-0.15,0.02-0.3-0.01-0.46-0.1l-0.32-0.19l1.55-2.57c0.48-0.79,0.99-1.27,1.53-1.43c0.55-0.17,1.15-0.06,1.78,0.32
					L549.96,103.48z"/>
				<path class="st2" d="M556.47,91.35c0.07,0.04,0.13,0.09,0.19,0.15c0.05,0.06,0.09,0.13,0.11,0.21c0.02,0.09,0.02,0.19-0.01,0.31
					c-0.03,0.12-0.09,0.26-0.18,0.42l-1.7,2.84c-0.22,0.37-0.49,0.68-0.8,0.92c-0.31,0.25-0.64,0.42-0.99,0.51
					c-0.35,0.1-0.72,0.12-1.1,0.06c-0.38-0.05-0.76-0.2-1.14-0.42l-4.95-2.97c-0.76-0.46-1.2-1.06-1.33-1.82
					c-0.13-0.76,0.08-1.6,0.62-2.52l1.89-3.14l0.25,0.15c0.16,0.1,0.27,0.22,0.33,0.38c0.06,0.15-0.01,0.39-0.2,0.7l-1.42,2.37
					c-0.76,1.26-0.53,2.25,0.66,2.96l4.67,2.8c0.23,0.14,0.47,0.23,0.72,0.3c0.25,0.06,0.5,0.07,0.74,0.04
					c0.24-0.04,0.46-0.12,0.68-0.27c0.22-0.14,0.4-0.34,0.56-0.61l2.13-3.54L556.47,91.35z"/>
				<path class="st2" d="M555.3,85.83c-0.27,0.46-0.39,0.84-0.34,1.15c0.05,0.31,0.3,0.6,0.75,0.87l0.7,0.42
					c0.22,0.14,0.43,0.2,0.63,0.21c0.2,0.01,0.37-0.03,0.53-0.11c0.16-0.08,0.3-0.18,0.43-0.32c0.12-0.14,0.23-0.28,0.31-0.42
					l1.21-2.02l-2.87-1.72c-0.29,0.36-0.55,0.7-0.77,1.02C555.67,85.23,555.47,85.54,555.3,85.83 M560.99,85.07l-1.84,3.08
					c-0.43,0.71-0.93,1.18-1.5,1.41c-0.57,0.23-1.16,0.16-1.78-0.21l-0.82-0.49c-0.74-0.45-1.14-0.97-1.21-1.58
					c-0.07-0.61,0.12-1.26,0.56-1.97c0.21-0.33,0.42-0.64,0.63-0.94s0.46-0.63,0.77-0.99l-0.76-0.46c-0.34-0.2-0.67-0.26-0.98-0.18
					c-0.31,0.09-0.6,0.34-0.85,0.76l-1.11,1.85c-0.19,0.32-0.36,0.48-0.51,0.51c-0.15,0.02-0.31-0.01-0.46-0.11l-0.32-0.19
					l1.55-2.58c0.47-0.79,0.99-1.27,1.53-1.44c0.55-0.17,1.15-0.06,1.78,0.32L560.99,85.07z"/>
				<path class="st2" d="M562.71,82.2l-0.27,0.45c-0.12,0.2-0.26,0.32-0.41,0.36c-0.15,0.04-0.34-0.01-0.57-0.15l-6.65-3.99
					l0.62-1.03l2.95,1.77l2.28-3.8l-2.95-1.77l0.62-1.04l7.27,4.36l-0.27,0.45c-0.13,0.21-0.27,0.34-0.41,0.37
					c-0.15,0.04-0.34-0.01-0.56-0.15l-3.21-1.92c0.05,0.16,0.07,0.33,0.05,0.51c-0.02,0.18-0.09,0.37-0.21,0.58l-1.76,2.93
					L562.71,82.2z"/>
				<path class="st2" d="M567.43,74.33l-0.27,0.45c-0.12,0.2-0.26,0.32-0.41,0.36c-0.15,0.04-0.34-0.01-0.57-0.15L559.54,71
					l0.61-1.03l2.95,1.77l2.28-3.8l-2.95-1.77l0.63-1.04l7.27,4.36l-0.27,0.45c-0.12,0.21-0.27,0.34-0.41,0.38
					c-0.15,0.04-0.34-0.01-0.56-0.15l-3.21-1.92c0.05,0.16,0.07,0.33,0.05,0.51c-0.02,0.18-0.09,0.37-0.21,0.58l-1.76,2.93
					L567.43,74.33z"/>
				<path class="st2" d="M564.26,63.13l0.63-1.04l6.36,3.81l-4.14-7.51l0.81-1.36l7.28,4.36l-0.27,0.45
					c-0.12,0.2-0.26,0.33-0.4,0.37c-0.15,0.04-0.33,0-0.57-0.14l-5.29-3.17l3.44,6.2c0.12,0.2,0.18,0.43,0.2,0.68
					c0.02,0.25-0.03,0.48-0.16,0.7l-0.26,0.43c-0.24,0.4-0.53,0.49-0.89,0.28L564.26,63.13z"/>
				<path class="st2" d="M573.5,55.73c0.08-0.6,0.04-1.14-0.13-1.63c-0.17-0.49-0.41-0.95-0.74-1.39c-0.45-0.58-0.7-1.1-0.72-1.57
					c-0.03-0.46,0.1-0.93,0.38-1.4l0.36-0.59l0.23,0.14c0.2,0.12,0.33,0.24,0.4,0.38c0.07,0.14,0.02,0.34-0.13,0.6
					c-0.06,0.1-0.1,0.2-0.14,0.31c-0.03,0.11-0.04,0.24-0.02,0.38c0.02,0.14,0.08,0.31,0.16,0.49c0.09,0.18,0.22,0.39,0.41,0.62
					c0.25,0.33,0.47,0.69,0.65,1.07c0.18,0.38,0.29,0.83,0.33,1.35l5.31-0.82l-0.71,1.17L573.5,55.73z M569.71,54.04l7.28,4.36
					l-0.28,0.46c-0.12,0.2-0.26,0.32-0.41,0.35c-0.15,0.03-0.34-0.02-0.57-0.16l-6.64-3.98L569.71,54.04z"/>
				<path class="st2" d="M578.81,44.85c-0.27-0.16-0.55-0.29-0.84-0.37c-0.29-0.08-0.56-0.1-0.83-0.05
					c-0.27,0.04-0.52,0.15-0.78,0.32c-0.24,0.17-0.47,0.43-0.67,0.77c-0.35,0.58-0.45,1.14-0.32,1.66c0.14,0.53,0.54,1,1.2,1.39
					l1.95,1.17c0.65,0.39,1.24,0.53,1.78,0.42c0.54-0.12,0.99-0.48,1.34-1.07c0.36-0.59,0.46-1.15,0.33-1.67
					c-0.14-0.52-0.54-0.99-1.22-1.39L578.81,44.85z M574.87,45.02c0.57-0.94,1.22-1.53,1.97-1.76c0.75-0.23,1.61-0.04,2.6,0.55
					l1.95,1.18c0.98,0.59,1.56,1.26,1.73,2.03c0.17,0.77-0.04,1.63-0.61,2.59c-0.56,0.93-1.22,1.51-1.98,1.74
					c-0.76,0.23-1.63,0.04-2.62-0.55l-1.96-1.17c-0.98-0.59-1.54-1.27-1.69-2.05C574.11,46.79,574.32,45.94,574.87,45.02"/>
				<path class="st2" d="M582.41,41.78l2.51,1.51l1.17-1.95c0.37-0.62,0.56-1.13,0.56-1.53c0-0.41-0.22-0.74-0.67-1.01l-0.08-0.05
					c-0.46-0.27-0.86-0.33-1.21-0.16c-0.35,0.17-0.72,0.58-1.11,1.23L582.41,41.78z M579.34,39.94l2.23,1.34l1.19-1.98
					c0.18-0.3,0.31-0.56,0.38-0.79c0.07-0.23,0.09-0.43,0.05-0.6c-0.03-0.17-0.11-0.33-0.22-0.46c-0.12-0.13-0.28-0.26-0.48-0.38
					c-0.41-0.24-0.76-0.28-1.07-0.11c-0.3,0.17-0.6,0.5-0.9,1L579.34,39.94z M579.66,37.46c0.53-0.88,1.07-1.44,1.62-1.66
					c0.56-0.23,1.15-0.15,1.79,0.23c0.45,0.27,0.75,0.58,0.91,0.93c0.16,0.35,0.19,0.71,0.1,1.08c0.36-0.4,0.74-0.62,1.13-0.67
					c0.39-0.05,0.78,0.04,1.14,0.25l0.31,0.19c0.42,0.25,0.71,0.54,0.87,0.86c0.15,0.32,0.22,0.66,0.2,1.01
					c-0.02,0.35-0.11,0.71-0.26,1.08c-0.15,0.37-0.33,0.72-0.54,1.07l-1.79,2.98l-7.27-4.36L579.66,37.46z"/>
				<path class="st2" d="M587.11,32.8c-0.28,0.46-0.39,0.84-0.34,1.15c0.05,0.31,0.3,0.6,0.75,0.87l0.7,0.42
					c0.22,0.13,0.43,0.2,0.63,0.21c0.2,0,0.37-0.04,0.53-0.11c0.16-0.08,0.3-0.18,0.43-0.32c0.12-0.14,0.22-0.27,0.31-0.41
					l1.21-2.02l-2.87-1.72c-0.29,0.36-0.54,0.7-0.77,1.02C587.48,32.21,587.28,32.51,587.11,32.8 M592.8,32.04l-1.85,3.08
					c-0.43,0.71-0.93,1.18-1.5,1.41c-0.57,0.23-1.16,0.16-1.78-0.21l-0.82-0.49c-0.74-0.45-1.15-0.97-1.21-1.58
					c-0.07-0.61,0.12-1.26,0.57-1.97c0.21-0.33,0.42-0.64,0.63-0.94c0.21-0.29,0.46-0.62,0.77-0.99l-0.77-0.45
					c-0.34-0.21-0.67-0.27-0.98-0.18c-0.31,0.09-0.6,0.34-0.85,0.77l-1.11,1.85c-0.19,0.32-0.36,0.49-0.51,0.51
					c-0.15,0.02-0.31-0.01-0.46-0.1l-0.32-0.19l1.55-2.58c0.47-0.79,0.99-1.27,1.53-1.44c0.55-0.17,1.15-0.06,1.78,0.32L592.8,32.04
					z"/>
			</g>
			<path class="st2" d="M871.11,190.24c0.05-0.54,0-1.03-0.17-1.46c-0.17-0.44-0.4-0.85-0.71-1.23c-0.43-0.51-0.66-0.97-0.71-1.38
				c-0.04-0.42,0.06-0.84,0.3-1.28l0.3-0.55l0.21,0.11c0.18,0.1,0.3,0.21,0.37,0.33c0.07,0.12,0.03,0.3-0.1,0.55
				c-0.05,0.09-0.09,0.18-0.12,0.28c-0.03,0.1-0.03,0.22-0.01,0.34c0.02,0.13,0.08,0.28,0.16,0.44c0.08,0.16,0.21,0.35,0.38,0.55
				c0.24,0.29,0.45,0.6,0.62,0.94c0.17,0.34,0.28,0.73,0.33,1.2l4.76-0.92l-0.6,1.08L871.11,190.24z M867.65,188.86l6.69,3.68
				l-0.24,0.42c-0.1,0.18-0.22,0.29-0.35,0.33s-0.31-0.01-0.52-0.12l-6.1-3.36L867.65,188.86z"/>
			<path class="st2" d="M870.78,183.16l0.53-0.96l5.85,3.22l-3.98-6.62l0.69-1.25l6.69,3.68l-0.23,0.41
				c-0.1,0.19-0.22,0.3-0.35,0.35c-0.13,0.04-0.3,0.01-0.51-0.11l-4.87-2.68l3.3,5.46c0.11,0.18,0.18,0.38,0.21,0.6
				c0.02,0.23-0.02,0.44-0.12,0.63l-0.22,0.4c-0.2,0.37-0.47,0.46-0.79,0.28L870.78,183.16z"/>
			<path class="st2" d="M882.07,178.49l-0.23,0.41c-0.1,0.19-0.22,0.3-0.35,0.34c-0.13,0.04-0.3,0-0.52-0.12l-6.12-3.36l0.52-0.95
				l2.71,1.49l1.93-3.5l-2.71-1.49l0.53-0.96l6.69,3.68l-0.23,0.41c-0.11,0.2-0.22,0.31-0.36,0.35c-0.13,0.04-0.3,0-0.52-0.12
				l-2.95-1.62c0.05,0.14,0.07,0.3,0.06,0.46c-0.01,0.17-0.07,0.34-0.17,0.53l-1.48,2.7L882.07,178.49z"/>
			<path class="st2" d="M883.05,168.33c-0.23,0.42-0.32,0.77-0.27,1.05c0.05,0.28,0.29,0.53,0.7,0.76l0.65,0.36
				c0.21,0.11,0.4,0.16,0.57,0.16c0.18,0,0.34-0.04,0.48-0.12c0.14-0.07,0.27-0.17,0.37-0.3s0.2-0.26,0.27-0.39l1.02-1.86
				l-2.64-1.45c-0.25,0.34-0.47,0.65-0.66,0.95C883.36,167.78,883.2,168.06,883.05,168.33 M888.14,167.45l-1.56,2.83
				c-0.36,0.66-0.8,1.1-1.3,1.32c-0.51,0.23-1.04,0.18-1.61-0.13l-0.76-0.42c-0.68-0.38-1.06-0.83-1.14-1.38
				c-0.08-0.54,0.07-1.14,0.45-1.79c0.18-0.31,0.35-0.59,0.53-0.87c0.17-0.27,0.39-0.58,0.66-0.92l-0.7-0.39
				c-0.31-0.17-0.61-0.21-0.89-0.12c-0.28,0.09-0.53,0.33-0.74,0.71l-0.94,1.7c-0.16,0.29-0.31,0.45-0.45,0.47
				c-0.14,0.02-0.28,0-0.42-0.08l-0.29-0.16l1.3-2.37c0.4-0.73,0.85-1.18,1.33-1.35c0.49-0.17,1.02-0.1,1.61,0.23L888.14,167.45z"/>
			<g>
				<path class="st2" d="M697.42,108.54c0-0.48-0.06-0.93-0.18-1.35c-0.12-0.42-0.3-0.79-0.53-1.09c-0.24-0.3-0.54-0.55-0.9-0.72
					c-0.36-0.18-0.78-0.27-1.25-0.27s-0.88,0.09-1.24,0.27c-0.36,0.17-0.65,0.42-0.89,0.72c-0.24,0.3-0.42,0.67-0.54,1.09
					c-0.12,0.42-0.18,0.88-0.18,1.37v1.99c0,1.12,0.24,1.98,0.71,2.55c0.48,0.59,1.19,0.88,2.14,0.88s1.67-0.29,2.14-0.88
					c0.48-0.58,0.72-1.44,0.72-2.57V108.54z M694.56,104.16c1.34,0,2.33,0.38,2.98,1.15c0.64,0.76,0.96,1.85,0.96,3.24v1.99
					c0,1.39-0.32,2.47-0.96,3.23c-0.64,0.76-1.64,1.15-2.98,1.15s-2.33-0.39-2.97-1.15c-0.64-0.76-0.96-1.84-0.96-3.24v-1.98
					c0-1.4,0.32-2.48,0.96-3.24C692.23,104.55,693.22,104.16,694.56,104.16"/>
				<path class="st2" d="M702.22,107.98h-2.62v-0.9h6.35v0.27c0,0.23-0.03,0.39-0.11,0.49c-0.07,0.1-0.26,0.15-0.55,0.15h-1.97v6.74
					h-0.47c-0.21,0-0.37-0.05-0.47-0.15c-0.1-0.1-0.15-0.27-0.15-0.5V107.98z"/>
				<path class="st2" d="M708.23,113.32h1.83c1.09,0,1.64-0.54,1.64-1.62v-2.08c0-0.53-0.13-0.94-0.39-1.22
					c-0.27-0.28-0.68-0.42-1.24-0.42h-1.83V113.32z M707.14,107.08h2.93c1.82,0,2.73,0.84,2.73,2.53v2.08c0,0.87-0.24,1.5-0.71,1.9
					c-0.47,0.4-1.15,0.6-2.03,0.6h-1.83v3.22h-0.47c-0.22,0-0.38-0.05-0.48-0.15c-0.1-0.1-0.15-0.27-0.15-0.51V107.08z"/>
				<path class="st2" d="M716.87,110.68c-0.48,0-0.83,0.09-1.05,0.27c-0.22,0.18-0.33,0.51-0.33,0.98v0.74
					c0,0.23,0.04,0.43,0.13,0.58c0.09,0.15,0.2,0.28,0.33,0.36c0.14,0.09,0.28,0.15,0.45,0.18c0.16,0.03,0.32,0.05,0.46,0.05H719
					v-3.01c-0.42-0.05-0.8-0.1-1.14-0.12C717.5,110.69,717.18,110.68,716.87,110.68 M720.09,114.72h-3.23
					c-0.75,0-1.34-0.17-1.78-0.5c-0.44-0.34-0.66-0.82-0.66-1.48v-0.86c0-0.78,0.22-1.33,0.66-1.67c0.44-0.33,1.03-0.49,1.78-0.47
					c0.35,0.01,0.69,0.03,1.01,0.05c0.32,0.02,0.7,0.07,1.12,0.13v-0.8c0-0.36-0.1-0.64-0.32-0.84c-0.21-0.2-0.54-0.3-0.98-0.3
					h-1.94c-0.33,0-0.54-0.05-0.63-0.16c-0.09-0.11-0.13-0.24-0.13-0.4v-0.34h2.7c0.83,0,1.44,0.17,1.83,0.52
					c0.38,0.35,0.58,0.85,0.58,1.52V114.72z"/>
				<path class="st2" d="M727.03,107.98h-2.78v0.58c0,0.44-0.01,0.9-0.03,1.39c-0.02,0.48-0.06,0.95-0.13,1.41
					c-0.07,0.46-0.17,0.91-0.3,1.34c-0.13,0.43-0.3,0.81-0.51,1.14h3.75V107.98z M723.17,107.08h4.95v6.76h0.69v3.19h-0.48
					c-0.21,0-0.37-0.05-0.46-0.14c-0.1-0.1-0.15-0.27-0.15-0.51v-1.67h-5.23v2.32H722c-0.21,0-0.36-0.05-0.46-0.14
					c-0.09-0.1-0.14-0.27-0.14-0.51v-2.54h0.72c0.18-0.28,0.33-0.58,0.46-0.9c0.13-0.32,0.24-0.69,0.33-1.1
					c0.09-0.41,0.15-0.88,0.2-1.41c0.04-0.53,0.06-1.14,0.06-1.83V107.08z"/>
				<path class="st2" d="M731.51,114.72h-0.47c-0.21,0-0.37-0.05-0.46-0.15c-0.1-0.1-0.15-0.27-0.15-0.51v-6.98h1.08v3.1h3.99v-3.1
					h1.1v7.64h-0.47c-0.22,0-0.38-0.05-0.48-0.15c-0.1-0.1-0.15-0.27-0.15-0.5v-3.37c-0.1,0.11-0.23,0.2-0.37,0.27
					c-0.15,0.07-0.33,0.11-0.54,0.11h-3.08V114.72z"/>
				<path class="st2" d="M743.51,109.85c0-0.29-0.04-0.56-0.1-0.82c-0.07-0.26-0.18-0.48-0.34-0.66c-0.16-0.19-0.36-0.34-0.61-0.44
					c-0.25-0.11-0.55-0.17-0.9-0.17c-0.61,0-1.09,0.18-1.43,0.53c-0.35,0.35-0.52,0.87-0.52,1.57v2.05c0,0.68,0.17,1.2,0.51,1.57
					c0.34,0.36,0.82,0.54,1.45,0.54c0.62,0,1.1-0.17,1.44-0.52c0.34-0.35,0.51-0.88,0.51-1.59V109.85z M741.55,106.89
					c0.99,0,1.74,0.24,2.27,0.71c0.52,0.47,0.78,1.23,0.78,2.27v2.06c0,1.02-0.26,1.79-0.77,2.27c-0.51,0.49-1.28,0.73-2.28,0.73
					c-0.98,0-1.73-0.24-2.26-0.73c-0.53-0.48-0.79-1.24-0.79-2.27v-2.06c0-1.03,0.27-1.78,0.8-2.26
					C739.83,107.13,740.58,106.89,741.55,106.89"/>
				<path class="st2" d="M747.32,110.47h3.3c0.18,0,0.29-0.03,0.34-0.08c0.05-0.05,0.08-0.17,0.08-0.33v-0.75
					c0-0.48-0.16-0.85-0.48-1.13c-0.33-0.28-0.79-0.42-1.4-0.42c-0.56,0-1.01,0.14-1.34,0.42s-0.49,0.65-0.49,1.13V110.47z
					 M751.84,113.84v0.33c0,0.17-0.04,0.3-0.12,0.4c-0.08,0.1-0.29,0.15-0.62,0.15h-2.27c-0.39,0-0.74-0.06-1.06-0.17
					c-0.32-0.11-0.59-0.27-0.82-0.48c-0.23-0.21-0.4-0.46-0.53-0.76c-0.12-0.29-0.19-0.63-0.19-1v-2.72c0-0.48,0.08-0.89,0.24-1.24
					c0.16-0.35,0.37-0.63,0.64-0.84c0.27-0.21,0.58-0.37,0.93-0.47c0.35-0.1,0.73-0.15,1.12-0.15c0.43,0,0.82,0.05,1.19,0.16
					c0.36,0.11,0.68,0.26,0.95,0.46c0.27,0.21,0.47,0.45,0.62,0.76c0.15,0.3,0.22,0.65,0.22,1.03v1.14c0,0.3-0.07,0.52-0.21,0.68
					c-0.14,0.15-0.39,0.23-0.74,0.23h-3.86v0.97c0,0.49,0.15,0.87,0.44,1.13c0.29,0.26,0.65,0.4,1.06,0.4H751.84z"/>
			</g>
		</g>
		<path class="st2" d="M716.3,3.97c-5.11,0-9.26,4.15-9.26,9.26c0,5.11,4.15,9.26,9.26,9.26c5.12,0,9.26-4.15,9.26-9.26
			C725.56,8.11,721.41,3.97,716.3,3.97z M720.92,17.75h-0.82c-0.35,0-0.6-0.07-0.74-0.22c-0.15-0.14-0.23-0.38-0.23-0.71v-4.85
			l-1.52,2.16c-0.14,0.21-0.31,0.38-0.49,0.52c-0.18,0.14-0.43,0.21-0.74,0.21c-0.3,0-0.54-0.07-0.72-0.21
			c-0.18-0.14-0.35-0.3-0.49-0.5l-1.66-2.22v5.83h-0.82c-0.65,0-0.97-0.28-0.97-0.85V9.27h1.71l2.76,3.82
			c0.04,0.07,0.11,0.1,0.2,0.1c0.09,0.01,0.16-0.03,0.21-0.1l2.62-3.82h1.71V17.75z"/>
		<path class="st2" d="M707.02,74.27c-5.11,0-9.26,4.15-9.26,9.26s4.15,9.26,9.26,9.26c5.12,0,9.26-4.15,9.26-9.26
			S712.13,74.27,707.02,74.27z M711.64,88.06h-0.82c-0.35,0-0.6-0.07-0.74-0.21c-0.15-0.15-0.23-0.38-0.23-0.71v-4.86l-1.52,2.16
			c-0.14,0.21-0.31,0.38-0.49,0.52c-0.18,0.14-0.43,0.21-0.74,0.21c-0.3,0-0.54-0.07-0.72-0.21c-0.18-0.14-0.35-0.31-0.49-0.5
			l-1.66-2.22v5.83h-0.82c-0.65,0-0.97-0.28-0.97-0.85v-7.63h1.71l2.76,3.82c0.04,0.06,0.11,0.09,0.2,0.1
			c0.09,0.01,0.16-0.03,0.21-0.1l2.62-3.82h1.71V88.06z"/>
	</g>
	<g>
		<defs>
			<rect id="SVGID_1_" width="1451.71" height="335.46"/>
		</defs>
		<clipPath id="SVGID_2_">
			<use xlink:href="#SVGID_1_"  style="overflow:visible;"/>
		</clipPath>
		<g class="st4">
			<path class="st5" d="M1045.9,433.6L626.35,196.29 M352.34-173.8l40.5,23.63l11.39,6.65l93.01,52.21l3.8,1.9l41.77,23.74
				l514.48,289.5l105.3,54.52c-0.57,13.62-3.72,24.49-3.16,34c0.59,10,3.08,17.85,7.87,23.11 M235.79,0l11.93,335.46l97.51-26.75
				l19.14-0.4l7.6-1.9l28.48-7.59l28.48-7.6l3.8-0.95l34.15-9.49l91.41-27.16c27.31-8.11,50.43-26.45,64.56-51.18l3.51-6.15
				L702.28,65.3l17.09-31.33c13.75-28.45,27.96-54.56,42.65-78.26c19.84-32.01,50.5-55.8,86.48-66.95
				c14.09-4.37,29.4-8.84,45.72-13.41l193.99-53.2 M942.54-177.55l-170.01,64.4l-61.42,24.24c-7.12,2.81-13.8,6.62-19.85,11.31
				l-19.12,14.82c-6.44,5-12.09,10.94-16.76,17.62l-21.44,30.73 M1088.21-177.85l3.26,3.94l3.8,4.75l15.19,19.94
				c65.23,83.76,104.5,143.77,111.45,166.06c1.26,4.04-0.95,8.34-4.93,9.76l-125.7,44.93c-21.74,7.77-36.17,28.47-35.93,51.56
				l1.95,191.88v69.22c0,4.45-0.58,8.88-1.73,13.18l-9.66,36.24 M844.66,319.71L776.4,434.43 M874.28-177.85l23.54,62.8l3.8,13.29
				l3.8,11.39l25.97,98.32c3.85,14.56,2.11,30.04-4.88,43.38l-40.08,76.6l-91.11,164.23 M633.95-14.42l-62.65,106.3l-34.18,62.64
				l-26.58,46.52l-15.19,29.43l-3.8,5.69l-24.68,44.62l235.25,153.58 M702.28,65.3l43.67-17.09"/>
			<path class="st5" d="M1160.54,297.22c13.97,5.87,25.01,13.28,39.02,16.62c14.74,3.51,26.58,2.21,47.08,4.25"/>
			<path class="st5" d="M441.9,0l-68.7,123.85c-6.11,11.01-9.12,23.48-8.72,36.07l4.7,147.19"/>
			<polyline class="st5" points="364.36,308.31 346.04,319.27 278.78,338.3 			"/>
			<polyline class="st5" points="251.69,0 256.73,321.89 258.89,332.39 			"/>
			<line class="st5" x1="238.12" y1="335.46" x2="231.14" y2="0"/>
			<polyline class="st5" points="215.62,0 226.48,265.57 222.7,267.66 223.47,303.99 			"/>
			<path class="st6" d="M864.18,170.35l131.9,74.03c5.05,2.83,6.85,9.22,4.02,14.27l-63.35,113.22"/>
			<polyline class="st6" points="989.03,278.43 1049.27,312.92 1057.29,313.07 			"/>
			<polyline class="st6" points="972.29,231.02 980.26,216.12 982.04,207.52 992.38,187.3 			"/>
			<polyline class="st6" points="946.04,161.22 1004.63,57.69 1004.63,51.42 993.97,52.48 982.33,7.99 			"/>
			<polyline class="st6" points="932.85,15.37 941.95,17.45 1010.57,0 			"/>
			<line class="st6" x1="1181.3" y1="38.85" x2="1168.45" y2="0"/>
			<polyline class="st6" points="1048.18,0 1065.65,57.69 1079.65,77.34 			"/>
			<path class="st6" d="M993.51,77.34l26.08,15.08c2.24,1.29,4.14,3.08,5.57,5.23l2.43,3.64c2.66,3.99,7.03,6.51,11.82,6.81
				l17.6,1.09"/>
			<path class="st6" d="M932.85,23.04c0.53-0.05-27.99,3.85-27.99,3.85l-6.09,4.47c-1.57,1.16-3.68,1.28-5.38,0.31l-29.6-16.91
				l-2.78,1.12c-5.73,2.29-10.48,6.5-13.45,11.91l-32.76,59.59"/>
			<polyline class="st6" points="659.03,141.92 682.81,143.16 731.62,171.75 736.6,164.44 813.16,205.86 813.16,217.31 
				876.74,255.07 844.66,319.71 			"/>
			<polyline class="st6" points="365.09,179.25 398.49,177.54 398.49,168.6 415.16,167.97 423.37,160.78 427.6,152.39 
				450.03,114.55 453,109.54 461.73,113.32 466.87,110.91 539.39,150.36 			"/>
			<path class="st6" d="M401.96,72l5.53,4.78l-7.67,15.65c4.31,3.69,10.47,4.91,17.13,5.45c3.11,0.25,6.12,1.18,8.83,2.73
				l24.25,13.94"/>
			<polyline class="st6" points="417.78,165.67 453.84,165.67 512.45,197.69 			"/>
			<path class="st6" d="M436.28,10.13l17.58,13.22l-17.58,30.7l85.45,48.85c3.86-5.54,8.82-19.87,14.09-28.62l12.38,6.24l8.49-0.51
				l15.9,9.69"/>
			<polyline class="st6" points="364.73,167.97 345.23,166.2 351.07,162.96 349.8,18.62 352.34,0 			"/>
			<path class="st6" d="M254.41,173.26h61.08l4.9-2.94v-12.38h18.96l1.29,5.05c0.42,1.63,1.78,2.84,3.44,3.06l1.15,0.15"/>
			<path class="st6" d="M351.24,166.74c0.04,0,0,32.51,0,32.51l-12.87,1.63l2.71,88.52c0.07,2.17,0.37,4.33,0.9,6.43l3.25,12.88"/>
			<path class="st6" d="M343.76,309.11c4.17,0.97,5.75,7.2,2.28,10.16"/>
			<polyline class="st6" points="225.95,252.55 219.5,254.7 154.71,259.36 112.04,258.41 105.71,105.69 			"/>
			<path class="st6" d="M350.96,10.13l-31.87,1.97l-1.8,13.39c-20.81,0.53-42.38,0.19-65.23-1.6"/>
			<path class="st6" d="M253.26,99.92c0,0-13.85,1.93-13.85,1.93"/>
			<polyline class="st6" points="233.26,101.85 219.79,101.85 22.27,108.5 19.08,96.79 19.08,84.61 11.36,0 			"/>
			<path class="st6" d="M1451.71,261.93h-23.29h-30.14c-2.42,0-4.75,0.95-6.48,2.64l-3.29,3.21c-0.59,0.58-1.43,0.85-2.23,0.68
				c-2.12-0.44-4.41-1.53-6.8-2.99c-1.25-0.76-1.83-2.26-1.49-3.68c2.46-10.31,7.27-18.87,12.97-26.76c0.59-0.82,1.6-1.23,2.59-1.08
				l7.5,1.13l23.97,17.1c1.19,0.85,2,2.13,2.27,3.56l1.14,6.2"/>
			<path class="st6" d="M827.53,94.53l-9.61,22.07l-14.38-10.38l-20.08,34.23c-0.9,1.53-2.81,2.11-4.4,1.33l-15.32-7.45
				l-19.13,34.44"/>
			<path class="st6" d="M616.89,14.53c0.64,0.2,86.63,48.51,86.63,48.51"/>
			<path class="st6" d="M756.72-35.59l-22.63-13.19c-0.56-0.33-1.27-0.2-1.68,0.3l-5.31,6.41c-0.74,0.89-2,1.19-3.03,0.68
				c-3.39-1.69-5.79-5.56-7.79-10.34l-29.35-17.1l-3.56,0.98l-7.09,5.51c-0.97,0.75-2.14,1.19-3.37,1.27l-3.08,0.18"/>
			<polyline class="st6" points="643.95,-28.76 674,-8.97 674.66,-1.92 686.93,5.77 682.81,13.1 			"/>
			<path class="st6" d="M702.12-26.84c-1.28-0.16-8.96-4.86-8.96-4.86l-9.5,15.99l12.64,7.88L690.96,3.1l16.83,9.93
				c1.85,1.09,2.5,3.45,1.46,5.33l-4.04,7.33"/>
		</g>
	</g>
	<line class="st6" x1="491.55" y1="236.17" x2="535.81" y2="260.3"/>
</g>
<g id="Layer_4">
	<linearGradient id="SVGID_3_" gradientUnits="userSpaceOnUse" x1="725.8547" y1="335.4566" x2="725.8547" y2="171.7477">
		<stop  offset="0" style="stop-color:#000000"/>
		<stop  offset="1" style="stop-color:#000000;stop-opacity:0"/>
	</linearGradient>
	<rect y="171.75" class="st7" width="1451.71" height="163.71"/>
	
		<linearGradient id="SVGID_4_" gradientUnits="userSpaceOnUse" x1="725.8547" y1="161.2101" x2="725.8547" y2="79.6742" gradientTransform="matrix(-1 0 0 -1 1451.7095 161.2774)">
		<stop  offset="0" style="stop-color:#000000"/>
		<stop  offset="1" style="stop-color:#000000;stop-opacity:0"/>
	</linearGradient>
	<polygon class="st8" points="0,81.6 1451.71,81.6 1451.71,0.07 0,0.07 	"/>
</g>
</svg>
